<svg width="528" height="491" viewBox="0 0 528 491" fill="none" xmlns="http://www.w3.org/2000/svg">
<g filter="url(#filter0_d_0_1)">
<path fill-rule="evenodd" clip-rule="evenodd" d="M264 482H138.5C124.488 482.262 116 482 111 459.5C106 437 88 317 88 317C-52.404 258.26 7.89421 126.041 101 113C132.024 40.7471 169 0 264 0C357 0 395.976 40.7471 427 113C520.106 126.041 580.404 258.26 440 317C440 317 422 437 417 459.5C412 482 403.512 482.262 389.5 482H264ZM113 133C-26.251 142.979 10.7979 350.67 159 285C213.021 316.126 234.218 321.657 264 321C293.782 321.657 314.979 316.126 369 285C517.202 350.67 554.251 142.979 415 133C375.52 49.0163 344 20 264 20C184 20 152.48 49.0163 113 133ZM159 306.5C141.379 316.335 128.941 318.519 107.5 320L128 453.5C129.578 459.808 131.187 462.599 138.5 463H181C184.076 462.825 184.475 461.691 184.5 459L175 317C169.293 313.878 165.916 311.808 159 306.5ZM254.5 340.5C230.705 339.099 217.96 336.251 196 328.5L204 460C204.231 462.362 205.032 462.837 207 463H251.5C253.615 462.607 254.355 461.627 254.5 460V340.5ZM369 306.5C386.621 316.335 399.058 318.519 420.5 320L400 453.5C398.422 459.808 396.813 462.599 389.5 463H347C343.924 462.825 343.525 461.691 343.5 459L353 317C358.707 313.878 362.084 311.808 369 306.5ZM273.5 340.5C297.295 339.099 310.04 336.251 332 328.5L324 460C323.769 462.362 322.968 462.837 321 463H276.5C274.385 462.607 273.645 461.627 273.5 460V340.5Z" fill="black"/>
<path d="M159 285C10.7979 350.67 -26.251 142.979 113 133C152.48 49.0163 184 20 264 20C344 20 375.52 49.0163 415 133C554.251 142.979 517.202 350.67 369 285C314.979 316.126 293.782 321.657 264 321C234.218 321.657 213.021 316.126 159 285Z" fill="url(#paint0_linear_0_1)"/>
<path d="M107.5 320C128.941 318.519 141.379 316.335 159 306.5C165.916 311.808 169.293 313.878 175 317L184.5 459C184.475 461.691 184.076 462.825 181 463H138.5C131.187 462.599 129.578 459.808 128 453.5L107.5 320Z" fill="url(#paint1_linear_0_1)"/>
<path d="M196 328.5C217.96 336.251 230.705 339.099 254.5 340.5V460C254.355 461.627 253.615 462.607 251.5 463H207C205.032 462.837 204.231 462.362 204 460L196 328.5Z" fill="url(#paint2_linear_0_1)"/>
<path d="M420.5 320C399.058 318.519 386.621 316.335 369 306.5C362.084 311.808 358.707 313.878 353 317L343.5 459C343.525 461.691 343.924 462.825 347 463H389.5C396.813 462.599 398.422 459.808 400 453.5L420.5 320Z" fill="url(#paint3_linear_0_1)"/>
<path d="M332 328.5C310.04 336.251 297.295 339.099 273.5 340.5V460C273.645 461.627 274.385 462.607 276.5 463H321C322.968 462.837 323.769 462.362 324 460L332 328.5Z" fill="url(#paint4_linear_0_1)"/>
</g>
<path fill-rule="evenodd" clip-rule="evenodd" d="M187 192C187 203.598 177.598 213 166 213C154.402 213 145 203.598 145 192C145 180.402 154.402 171 166 171C177.598 171 187 180.402 187 192ZM164.875 186C167.988 186 170.875 188.625 170.875 192C170.875 195.375 169.375 198.375 164.875 198.375C160.375 198.375 158.875 195.375 158.875 192C158.875 188.625 161.762 186 164.875 186Z" fill="black"/>
<path fill-rule="evenodd" clip-rule="evenodd" d="M354 129C354 140.598 344.598 150 333 150C321.402 150 312 140.598 312 129C312 117.402 321.402 108 333 108C344.598 108 354 117.402 354 129ZM331.875 123C334.989 123 337.875 125.625 337.875 129C337.875 132.375 336.375 135.375 331.875 135.375C327.375 135.375 325.875 132.375 325.875 129C325.875 125.625 328.762 123 331.875 123Z" fill="black"/>
<path fill-rule="evenodd" clip-rule="evenodd" d="M255 102C255 113.598 245.598 123 234 123C222.402 123 213 113.598 213 102C213 90.402 222.402 81 234 81C245.598 81 255 90.402 255 102ZM232.875 96C235.988 96 238.875 98.625 238.875 102C238.875 105.375 237.375 108.375 232.875 108.375C228.375 108.375 226.875 105.375 226.875 102C226.875 98.625 229.762 96 232.875 96Z" fill="black"/>
<path fill-rule="evenodd" clip-rule="evenodd" d="M327 226C327 237.598 317.598 247 306 247C294.402 247 285 237.598 285 226C285 214.402 294.402 205 306 205C317.598 205 327 214.402 327 226ZM304.875 220C307.989 220 310.875 222.625 310.875 226C310.875 229.375 309.375 232.375 304.875 232.375C300.375 232.375 298.875 229.375 298.875 226C298.875 222.625 301.762 220 304.875 220Z" fill="black"/>
<defs>
<filter id="filter0_d_0_1" x="0.851761" y="0" width="526.296" height="490.042" filterUnits="userSpaceOnUse" color-interpolation-filters="sRGB">
<feFlood flood-opacity="0" result="BackgroundImageFix"/>
<feColorMatrix in="SourceAlpha" type="matrix" values="0 0 0 0 0 0 0 0 0 0 0 0 0 0 0 0 0 0 127 0" result="hardAlpha"/>
<feOffset dy="4"/>
<feGaussianBlur stdDeviation="2"/>
<feComposite in2="hardAlpha" operator="out"/>
<feColorMatrix type="matrix" values="0 0 0 0 0 0 0 0 0 0 0 0 0 0 0 0 0 0 0.25 0"/>
<feBlend mode="normal" in2="BackgroundImageFix" result="effect1_dropShadow_0_1"/>
<feBlend mode="normal" in="SourceGraphic" in2="effect1_dropShadow_0_1" result="shape"/>
</filter>
<linearGradient id="paint0_linear_0_1" x1="443.5" y1="55.5" x2="98" y2="457.5" gradientUnits="userSpaceOnUse">
<stop stop-color="#FFC909"/>
<stop offset="1" stop-color="#FF0000" stop-opacity="0.99"/>
</linearGradient>
<linearGradient id="paint1_linear_0_1" x1="264" y1="0" x2="264" y2="482.042" gradientUnits="userSpaceOnUse">
<stop offset="0.729167" stop-color="#7715FC"/>
<stop offset="0.9999" stop-color="#0783FC"/>
<stop offset="1" stop-color="#0485FC"/>
</linearGradient>
<linearGradient id="paint2_linear_0_1" x1="264" y1="0" x2="264" y2="482.042" gradientUnits="userSpaceOnUse">
<stop offset="0.729167" stop-color="#7715FC"/>
<stop offset="0.9999" stop-color="#0783FC"/>
<stop offset="1" stop-color="#0485FC"/>
</linearGradient>
<linearGradient id="paint3_linear_0_1" x1="264" y1="0" x2="264" y2="482.042" gradientUnits="userSpaceOnUse">
<stop offset="0.729167" stop-color="#7715FC"/>
<stop offset="0.9999" stop-color="#0783FC"/>
<stop offset="1" stop-color="#0485FC"/>
</linearGradient>
<linearGradient id="paint4_linear_0_1" x1="264" y1="0" x2="264" y2="482.042" gradientUnits="userSpaceOnUse">
<stop offset="0.729167" stop-color="#7715FC"/>
<stop offset="0.9999" stop-color="#0783FC"/>
<stop offset="1" stop-color="#0485FC"/>
</linearGradient>
</defs>
</svg>
