<svg width="617" height="381" viewBox="0 0 617 381" fill="none" xmlns="http://www.w3.org/2000/svg">
<path d="M106 18C101 18 98 22 98 26V338C98 343 102 346 106 346H211V86C211 86 125.5 85 121 85C116.5 85 115.5 83.5 115.5 79.5V49.5C115.5 45.5 117.5 44 121 44C124.5 44 211 45 211 45V18L106 18Z" fill="#111111"/>
<path d="M544 25C544 20 540 17 536 17L535.573 17.0013C534.425 17.0057 531.134 17.0211 526.02 17.0449C484.298 17.2395 321.254 18 211 18V45C211 45 124.5 44 121 44C117.5 44 115.5 45.5 115.5 49.5V79.5C115.5 83.5 116.5 85 121 85C125.5 85 211 86 211 86V346L535.342 345.002L535.638 345.001L535.857 345C535.921 345 535.969 345 536 345C541 345 544 341 544 337V25Z" fill="#22262C"/>
<path d="M132.208 69L131.452 66.606H127.258L126.502 69H124.36L128.446 56.76H130.354L134.458 69H132.208ZM128.428 62.862L127.87 64.626H130.822L130.264 62.862L129.364 59.766L128.428 62.862ZM140.521 61.62C140.221 61.62 139.879 61.692 139.495 61.836C139.111 61.98 138.655 62.262 138.127 62.682V69H136.057V59.874H138.019V61.098C138.583 60.606 139.117 60.252 139.621 60.036C140.125 59.808 140.635 59.694 141.151 59.694C142.027 59.694 142.693 59.976 143.149 60.54C143.605 61.092 143.833 61.872 143.833 62.88V69H141.763V63.132C141.763 62.124 141.349 61.62 140.521 61.62ZM151.914 69V67.758C151.362 68.31 150.882 68.688 150.474 68.892C150.078 69.084 149.664 69.18 149.232 69.18C148.248 69.18 147.48 68.808 146.928 68.064C146.388 67.32 146.118 66.276 146.118 64.932V63.96C146.118 62.652 146.448 61.614 147.108 60.846C147.768 60.078 148.722 59.694 149.97 59.694C150.282 59.694 150.588 59.724 150.888 59.784C151.2 59.844 151.506 59.928 151.806 60.036V55.68H153.876V69H151.914ZM148.242 64.932C148.242 65.736 148.374 66.324 148.638 66.696C148.914 67.068 149.298 67.254 149.79 67.254C150.066 67.254 150.36 67.176 150.672 67.02C150.984 66.852 151.362 66.54 151.806 66.084V61.908C151.218 61.668 150.678 61.548 150.186 61.548C149.49 61.548 148.992 61.764 148.692 62.196C148.392 62.628 148.242 63.216 148.242 63.96V64.932ZM163.659 68.478C163.035 68.73 162.447 68.91 161.895 69.018C161.343 69.126 160.821 69.18 160.329 69.18C158.973 69.18 157.947 68.796 157.251 68.028C156.555 67.26 156.207 66.24 156.207 64.968V63.888C156.207 63.036 156.363 62.298 156.675 61.674C156.987 61.05 157.431 60.564 158.007 60.216C158.583 59.868 159.261 59.694 160.041 59.694C160.677 59.694 161.271 59.826 161.823 60.09C162.387 60.342 162.843 60.744 163.191 61.296C163.551 61.836 163.731 62.532 163.731 63.384C163.731 63.636 163.713 63.906 163.677 64.194C163.641 64.47 163.581 64.764 163.497 65.076H158.205C158.229 65.82 158.415 66.378 158.763 66.75C159.111 67.122 159.669 67.308 160.437 67.308C160.845 67.308 161.265 67.26 161.697 67.164C162.141 67.068 162.597 66.924 163.065 66.732L163.659 68.478ZM160.041 61.44C159.489 61.44 159.057 61.62 158.745 61.98C158.445 62.328 158.271 62.832 158.223 63.492H161.679C161.691 63.432 161.697 63.378 161.697 63.33C161.697 63.27 161.697 63.216 161.697 63.168C161.697 62.592 161.535 62.16 161.211 61.872C160.887 61.584 160.497 61.44 160.041 61.44ZM171.263 61.764C170.699 61.764 170.159 61.854 169.643 62.034C169.139 62.202 168.653 62.478 168.185 62.862V69H166.115V59.874H168.077V61.278C168.689 60.702 169.235 60.294 169.715 60.054C170.195 59.814 170.711 59.694 171.263 59.694V61.764Z" fill="white"/>
<path d="M130.832 103.39V105H125.316V95.48H130.692V97.09H126.996V99.372H130.272V100.982H126.996V103.39H130.832ZM136.084 99.26C135.851 99.26 135.585 99.316 135.286 99.428C134.987 99.54 134.633 99.7593 134.222 100.086V105H132.612V97.902H134.138V98.854C134.577 98.4713 134.992 98.196 135.384 98.028C135.776 97.8507 136.173 97.762 136.574 97.762C137.255 97.762 137.773 97.9813 138.128 98.42C138.483 98.8493 138.66 99.456 138.66 100.24V105H137.05V100.436C137.05 99.652 136.728 99.26 136.084 99.26ZM146.178 104.594C145.692 104.79 145.235 104.93 144.806 105.014C144.376 105.098 143.97 105.14 143.588 105.14C142.533 105.14 141.735 104.841 141.194 104.244C140.652 103.647 140.382 102.853 140.382 101.864V101.024C140.382 100.361 140.503 99.7873 140.746 99.302C140.988 98.8167 141.334 98.4387 141.782 98.168C142.23 97.8973 142.757 97.762 143.364 97.762C143.858 97.762 144.32 97.8647 144.75 98.07C145.188 98.266 145.543 98.5787 145.814 99.008C146.094 99.428 146.234 99.9693 146.234 100.632C146.234 100.828 146.22 101.038 146.192 101.262C146.164 101.477 146.117 101.705 146.052 101.948H141.936C141.954 102.527 142.099 102.961 142.37 103.25C142.64 103.539 143.074 103.684 143.672 103.684C143.989 103.684 144.316 103.647 144.652 103.572C144.997 103.497 145.352 103.385 145.716 103.236L146.178 104.594ZM143.364 99.12C142.934 99.12 142.598 99.26 142.356 99.54C142.122 99.8107 141.987 100.203 141.95 100.716H144.638C144.647 100.669 144.652 100.627 144.652 100.59C144.652 100.543 144.652 100.501 144.652 100.464C144.652 100.016 144.526 99.68 144.274 99.456C144.022 99.232 143.718 99.12 143.364 99.12ZM152.33 105L150.58 102.046C150.3 102.326 150.006 102.606 149.698 102.886V105H148.088V94.64H149.698V101.108C150.23 100.567 150.688 100.049 151.07 99.554C151.462 99.05 151.822 98.4993 152.148 97.902H153.996C153.688 98.462 153.352 98.994 152.988 99.498C152.624 100.002 152.223 100.511 151.784 101.024L154.276 105H152.33ZM161.145 101.024V101.864C161.145 102.853 160.874 103.647 160.333 104.244C159.791 104.841 159.026 105.14 158.037 105.14C157.047 105.14 156.282 104.841 155.741 104.244C155.199 103.647 154.929 102.853 154.929 101.864V101.024C154.929 100.035 155.195 99.246 155.727 98.658C156.268 98.0607 157.038 97.762 158.037 97.762C159.035 97.762 159.801 98.0607 160.333 98.658C160.874 99.246 161.145 100.035 161.145 101.024ZM159.493 101.024C159.493 100.455 159.367 100.011 159.115 99.694C158.863 99.3673 158.503 99.204 158.037 99.204C157.57 99.204 157.211 99.3673 156.959 99.694C156.707 100.011 156.581 100.455 156.581 101.024V101.864C156.581 102.433 156.707 102.881 156.959 103.208C157.211 103.535 157.57 103.698 158.037 103.698C158.503 103.698 158.863 103.535 159.115 103.208C159.367 102.881 159.493 102.433 159.493 101.864V101.024Z" fill="#817E7E"/>
<path d="M130.188 125.346H126.996V129H125.316V119.48H130.608V121.09H126.996V123.736H130.188V125.346ZM135.905 123.372C135.466 123.372 135.046 123.442 134.645 123.582C134.253 123.713 133.875 123.927 133.511 124.226V129H131.901V121.902H133.427V122.994C133.903 122.546 134.328 122.229 134.701 122.042C135.074 121.855 135.476 121.762 135.905 121.762V123.372ZM142.691 129.07C142.215 129.07 141.832 128.972 141.543 128.776C141.263 128.58 141.058 128.337 140.927 128.048C140.526 128.421 140.138 128.697 139.765 128.874C139.392 129.051 138.99 129.14 138.561 129.14C137.936 129.14 137.474 128.939 137.175 128.538C136.886 128.137 136.741 127.628 136.741 127.012C136.741 126.601 136.816 126.242 136.965 125.934C137.124 125.617 137.38 125.369 137.735 125.192C138.09 125.015 138.575 124.926 139.191 124.926C139.434 124.926 139.686 124.945 139.947 124.982C140.208 125.01 140.47 125.047 140.731 125.094V124.268C140.731 123.876 140.624 123.61 140.409 123.47C140.194 123.321 139.905 123.246 139.541 123.246C139.261 123.246 138.953 123.283 138.617 123.358C138.29 123.433 137.936 123.549 137.553 123.708L137.091 122.336C138.034 121.953 138.888 121.762 139.653 121.762C140.344 121.762 140.876 121.879 141.249 122.112C141.632 122.345 141.898 122.653 142.047 123.036C142.196 123.419 142.271 123.829 142.271 124.268V126.998C142.271 127.138 142.308 127.273 142.383 127.404C142.467 127.525 142.626 127.586 142.859 127.586H143.013V129.07H142.691ZM138.295 126.984C138.295 127.236 138.351 127.437 138.463 127.586C138.575 127.726 138.738 127.796 138.953 127.796C139.168 127.796 139.41 127.74 139.681 127.628C139.952 127.516 140.302 127.255 140.731 126.844V126.242C140.246 126.158 139.77 126.116 139.303 126.116C138.939 126.116 138.678 126.191 138.519 126.34C138.37 126.489 138.295 126.704 138.295 126.984ZM147.883 123.26C147.649 123.26 147.383 123.316 147.085 123.428C146.786 123.54 146.431 123.759 146.021 124.086V129H144.411V121.902H145.937V122.854C146.375 122.471 146.791 122.196 147.183 122.028C147.575 121.851 147.971 121.762 148.373 121.762C149.054 121.762 149.572 121.981 149.927 122.42C150.281 122.849 150.459 123.456 150.459 124.24V129H148.849V124.436C148.849 123.652 148.527 123.26 147.883 123.26ZM153.818 125.038V125.864C153.818 126.461 153.926 126.909 154.14 127.208C154.355 127.507 154.7 127.656 155.176 127.656C155.41 127.656 155.671 127.628 155.96 127.572C156.259 127.507 156.581 127.409 156.926 127.278L157.388 128.636C156.968 128.804 156.572 128.93 156.198 129.014C155.825 129.098 155.456 129.14 155.092 129.14C154.159 129.14 153.445 128.841 152.95 128.244C152.456 127.647 152.208 126.853 152.208 125.864V125.038C152.208 124.039 152.456 123.246 152.95 122.658C153.445 122.061 154.159 121.762 155.092 121.762C155.447 121.762 155.806 121.804 156.17 121.888C156.534 121.972 156.917 122.093 157.318 122.252L156.856 123.638C156.184 123.377 155.624 123.246 155.176 123.246C154.7 123.246 154.355 123.395 154.14 123.694C153.926 123.983 153.818 124.431 153.818 125.038ZM160.514 120.558H158.82V118.892H160.514V120.558ZM160.472 129H158.862V121.902H160.472V129ZM164.678 127.74C165.023 127.74 165.308 127.684 165.532 127.572C165.756 127.451 165.868 127.273 165.868 127.04C165.868 126.835 165.793 126.676 165.644 126.564C165.504 126.443 165.247 126.335 164.874 126.242L164.076 126.032C163.46 125.873 163.003 125.607 162.704 125.234C162.415 124.861 162.27 124.417 162.27 123.904C162.27 123.297 162.48 122.789 162.9 122.378C163.32 121.967 163.969 121.762 164.846 121.762C165.201 121.762 165.574 121.804 165.966 121.888C166.358 121.972 166.769 122.107 167.198 122.294L166.736 123.666C166.344 123.479 165.989 123.349 165.672 123.274C165.355 123.199 165.075 123.162 164.832 123.162C164.169 123.162 163.838 123.386 163.838 123.834C163.838 124.011 163.894 124.151 164.006 124.254C164.127 124.357 164.347 124.45 164.664 124.534L165.462 124.744C166.143 124.921 166.638 125.192 166.946 125.556C167.263 125.92 167.422 126.377 167.422 126.928C167.422 127.581 167.198 128.113 166.75 128.524C166.311 128.935 165.616 129.14 164.664 129.14C163.852 129.14 162.998 128.953 162.102 128.58L162.536 127.25C162.975 127.427 163.371 127.553 163.726 127.628C164.081 127.703 164.398 127.74 164.678 127.74Z" fill="#817E7E"/>
<path d="M508.295 190C516.324 190 519 189.065 519 186.258V48.7419C519 45.9355 516.324 45 508.295 45L337.5 45V190H508.295Z" fill="#D9D9D9"/>
<path d="M248.705 45C240.676 45 238 45.9355 238 48.7419V186.258C238 189.065 240.676 190 248.705 190H337.5V45L248.705 45Z" fill="#7A7A7A"/>
<path d="M260.7 94.2L266.06 118.32H308.94L314.3 94.2L287.5 91.52L260.7 94.2Z" fill="#FF5023"/>
<path d="M287.5 94.2H260.7L266.06 118.32H287.5V94.2Z" fill="#BD3C1A"/>
<path d="M276.78 94.2L279.46 118.32H295.54L298.22 94.2H276.78Z" fill="#FF5023"/>
<path d="M287.5 94.2V118.32H295.54L298.22 94.2H287.5Z" fill="#FF734F"/>
<path d="M313.159 90.764C313.9 88.6001 314.3 86.1763 314.3 83.48C314.3 68.6786 302.301 56.68 287.5 56.68C272.699 56.68 260.7 68.6786 260.7 83.48C260.7 86.1763 261.1 88.6001 261.841 90.764H313.159Z" fill="#BD720D"/>
<path d="M321 87.5C321 91.2003 318 94.2 314.3 94.2H260.7C257 94.2 254 91.2003 254 87.5C254 83.7997 257 80.8 260.7 80.8H314.3C318 80.8 321 83.7997 321 87.5Z" fill="#E2BD25"/>
<path d="M287.5 80.8H260.7C257 80.8 254 83.7997 254 87.5C254 91.2003 257 94.2 260.7 94.2H287.5V80.8Z" fill="#FFDA44"/>
<path d="M287.5 56.68C273.603 56.68 262.178 67.2571 260.833 80.8H263.38C265.6 80.8 267.4 82.5999 267.4 84.82V96.88C267.4 99.1001 269.2 100.9 271.42 100.9C273.64 100.9 275.44 99.1001 275.44 96.88V86.16C275.44 83.9399 277.24 82.14 279.46 82.14C281.68 82.14 283.48 83.9399 283.48 86.16V94.2C283.48 96.4201 285.28 98.22 287.5 98.22C289.72 98.22 291.52 96.4201 291.52 94.2V86.16C291.52 83.9399 293.32 82.14 295.54 82.14C297.76 82.14 299.56 83.9399 299.56 86.16V96.88C299.56 99.1001 301.36 100.9 303.58 100.9C305.8 100.9 307.6 99.1001 307.6 96.88V84.82C307.6 82.5999 309.4 80.8 311.62 80.8H314.167C312.822 67.2571 301.397 56.68 287.5 56.68Z" fill="#804C09"/>
<path d="M287.5 56.68C273.603 56.68 262.178 67.2571 260.833 80.8H263.38C265.6 80.8 267.4 82.5999 267.4 84.82V96.88C267.4 99.1001 269.2 100.9 271.42 100.9C273.64 100.9 275.44 99.1001 275.44 96.88V86.16C275.44 83.9399 277.24 82.14 279.46 82.14C281.68 82.14 283.48 83.9399 283.48 86.16V94.2C283.48 96.4201 285.28 98.22 287.5 98.22C287.5 95.205 287.5 59.1796 287.5 56.68Z" fill="#402604"/>
<path d="M300.9 75.44C302.38 75.44 303.58 74.2401 303.58 72.76C303.58 71.2799 302.38 70.08 300.9 70.08C299.42 70.08 298.22 71.2799 298.22 72.76C298.22 74.2401 299.42 75.44 300.9 75.44Z" fill="#FF5023"/>
<path d="M274.1 75.44C275.58 75.44 276.78 74.2401 276.78 72.76C276.78 71.2799 275.58 70.08 274.1 70.08C272.62 70.08 271.42 71.2799 271.42 72.76C271.42 74.2401 272.62 75.44 274.1 75.44Z" fill="#64C37D"/>
<path d="M287.5 67.4C288.98 67.4 290.18 66.2001 290.18 64.72C290.18 63.2399 288.98 62.04 287.5 62.04C286.02 62.04 284.82 63.2399 284.82 64.72C284.82 66.2001 286.02 67.4 287.5 67.4Z" fill="#FF9811"/>
<path d="M258.5 130C258.442 130 258.384 129.987 258.33 129.961C258.276 129.935 256.996 129.31 255.697 128.262C254.925 127.639 254.309 126.996 253.864 126.35C253.291 125.517 253 124.675 253 123.847C253 122.277 254.319 121 255.94 121C257.036 121 257.995 121.584 258.5 122.448C259.005 121.584 259.964 121 261.06 121C262.681 121 264 122.277 264 123.847C264 124.675 263.709 125.517 263.136 126.35C262.691 126.996 262.075 127.639 261.303 128.262C260.004 129.31 258.724 129.935 258.67 129.961C258.616 129.987 258.558 130 258.5 130ZM255.94 121.736C254.738 121.736 253.76 122.683 253.76 123.847C253.76 126.564 257.634 128.759 258.5 129.215C259.366 128.758 263.24 126.56 263.24 123.847C263.24 122.683 262.262 121.736 261.06 121.736C259.858 121.736 258.88 122.683 258.88 123.847C258.88 124.05 258.71 124.215 258.5 124.215C258.29 124.215 258.12 124.05 258.12 123.847C258.12 122.683 257.142 121.736 255.94 121.736Z" fill="#FF336F"/>
<path d="M255.94 121.736C254.738 121.736 253.76 122.683 253.76 123.847C253.76 126.564 257.634 128.759 258.5 129.215C259.366 128.758 263.24 126.56 263.24 123.847C263.24 122.683 262.262 121.736 261.06 121.736C259.858 121.736 258.88 122.683 258.88 123.847C258.88 124.05 258.71 124.215 258.5 124.215C258.29 124.215 258.12 124.05 258.12 123.847C258.12 122.683 257.142 121.736 255.94 121.736Z" fill="#FF336F"/>
<path d="M267.05 127.085L267.915 126.6H268.415V130H267.825V127.26L267.315 127.54L267.05 127.085ZM271.145 130H269.085V129.525C269.085 129.285 269.116 129.085 269.18 128.925C269.243 128.762 269.328 128.628 269.435 128.525C269.541 128.418 269.658 128.333 269.785 128.27L270.125 128.1C270.255 128.033 270.36 127.963 270.44 127.89C270.523 127.813 270.565 127.715 270.565 127.595V127.505C270.565 127.382 270.521 127.285 270.435 127.215C270.351 127.142 270.216 127.105 270.03 127.105C269.916 127.105 269.801 127.122 269.685 127.155C269.571 127.188 269.433 127.235 269.27 127.295L269.085 126.78C269.271 126.697 269.441 126.638 269.595 126.605C269.751 126.568 269.903 126.55 270.05 126.55C270.32 126.55 270.535 126.593 270.695 126.68C270.858 126.767 270.975 126.883 271.045 127.03C271.118 127.173 271.155 127.332 271.155 127.505V127.595C271.155 127.775 271.118 127.928 271.045 128.055C270.975 128.182 270.881 128.288 270.765 128.375C270.648 128.462 270.521 128.538 270.385 128.605L270.045 128.775C269.921 128.835 269.83 128.918 269.77 129.025C269.713 129.132 269.681 129.268 269.675 129.435H271.145V130ZM273.639 129.075C273.639 129.252 273.603 129.415 273.529 129.565C273.456 129.712 273.338 129.83 273.174 129.92C273.014 130.007 272.799 130.05 272.529 130.05C272.376 130.05 272.216 130.032 272.049 129.995C271.886 129.958 271.706 129.897 271.509 129.81L271.694 129.295C271.871 129.358 272.019 129.408 272.139 129.445C272.263 129.478 272.386 129.495 272.509 129.495C272.686 129.495 272.819 129.46 272.909 129.39C273.003 129.317 273.049 129.203 273.049 129.05V128.98C273.049 128.853 273.009 128.752 272.929 128.675C272.853 128.595 272.733 128.555 272.569 128.555H272.039V128.015H272.569C272.726 128.015 272.841 127.978 272.914 127.905C272.988 127.828 273.024 127.73 273.024 127.61V127.54C273.024 127.387 272.981 127.277 272.894 127.21C272.811 127.14 272.688 127.105 272.524 127.105C272.408 127.105 272.289 127.122 272.169 127.155C272.053 127.185 271.911 127.232 271.744 127.295L271.559 126.78C271.746 126.693 271.919 126.633 272.079 126.6C272.239 126.567 272.394 126.55 272.544 126.55C272.801 126.55 273.008 126.593 273.164 126.68C273.321 126.767 273.434 126.883 273.504 127.03C273.578 127.177 273.614 127.338 273.614 127.515V127.585C273.614 127.742 273.574 127.88 273.494 128C273.418 128.117 273.316 128.21 273.189 128.28C273.326 128.353 273.434 128.452 273.514 128.575C273.598 128.695 273.639 128.838 273.639 129.005V129.075Z" fill="black"/>
<path d="M278 126C278.5 126 322.5 126 323 126C323.5 126 324 126.5 324 127C324 127.5 324 128.5 324 129C324 129.5 323.5 130 323 130C322.5 130 278.5 130 278 130C277.5 130 277 129.5 277 129C277 128.5 277 127.5 277 127C277 126.5 277.5 126 278 126Z" fill="#111111"/>
<path d="M253.723 143C254.085 143 285.915 143 286.277 143C286.638 143 287 143.5 287 144C287 144.5 287 145.5 287 146C287 146.5 286.638 147 286.277 147C285.915 147 254.085 147 253.723 147C253.362 147 253 146.5 253 146C253 145.5 253 144.5 253 144C253 143.5 253.362 143 253.723 143Z" fill="#111111"/>
<path d="M253.511 153C253.766 153 276.234 153 276.489 153C276.745 153 277 153.5 277 154C277 154.5 277 155.5 277 156C277 156.5 276.745 157 276.489 157C276.234 157 253.766 157 253.511 157C253.255 157 253 156.5 253 156C253 155.5 253 154.5 253 154C253 153.5 253.255 153 253.511 153Z" fill="#111111"/>
<path d="M253.511 163C253.766 163 276.234 163 276.489 163C276.745 163 277 163.5 277 164C277 164.5 277 165.5 277 166C277 166.5 276.745 167 276.489 167C276.234 167 253.766 167 253.511 167C253.255 167 253 166.5 253 166C253 165.5 253 164.5 253 164C253 163.5 253.255 163 253.511 163Z" fill="#111111"/>
<path d="M353.191 77C354.287 77 450.713 77 451.809 77C452.904 77 454 77.75 454 78.5C454 79.25 454 80.75 454 81.5C454 82.25 452.904 83 451.809 83C450.713 83 354.287 83 353.191 83C352.096 83 351 82.25 351 81.5C351 80.75 351 79.25 351 78.5C351 77.75 352.096 77 353.191 77Z" fill="#111111"/>
<path d="M352.787 88C353.681 88 432.319 88 433.213 88C434.106 88 435 88.75 435 89.5C435 90.25 435 91.75 435 92.5C435 93.25 434.106 94 433.213 94C432.319 94 353.681 94 352.787 94C351.894 94 351 93.25 351 92.5C351 91.75 351 90.25 351 89.5C351 88.75 351.894 88 352.787 88Z" fill="#111111"/>
<path d="M352.957 104C353.936 104 440.064 104 441.043 104C442.021 104 443 104.75 443 105.5C443 106.25 443 107.75 443 108.5C443 109.25 442.021 110 441.043 110C440.064 110 353.936 110 352.957 110C351.979 110 351 109.25 351 108.5C351 107.75 351 106.25 351 105.5C351 104.75 351.979 104 352.957 104Z" fill="#111111"/>
<path d="M351.723 117C352.085 117 383.915 117 384.277 117C384.638 117 385 117.75 385 118.5C385 119.25 385 120.75 385 121.5C385 122.25 384.638 123 384.277 123C383.915 123 352.085 123 351.723 123C351.362 123 351 122.25 351 121.5C351 120.75 351 119.25 351 118.5C351 117.75 351.362 117 351.723 117Z" fill="#111111"/>
<path d="M351.277 130C351.415 130 363.585 130 363.723 130C363.862 130 364 130.75 364 131.5C364 132.25 364 133.75 364 134.5C364 135.25 363.862 136 363.723 136C363.585 136 351.415 136 351.277 136C351.138 136 351 135.25 351 134.5C351 133.75 351 132.25 351 131.5C351 130.75 351.138 130 351.277 130Z" fill="#111111"/>
<path d="M353 171C354 171 387 171 388 171C389 171 390 171.5 390 173C390 174.5 390 178 390 179C390 180 389.5 181 388 181C386.5 181 354.5 181 353 181C351.5 181 351 180 351 179C351 178 351 174.5 351 173C351 171.5 352 171 353 171Z" fill="#29C566"/>
<path d="M360.125 174.6L361.075 176.925L362.02 174.6H362.675V178H362.1V176.7L362.175 175.51L361.33 177.6H360.795L359.97 175.505L360.045 176.7V178H359.47V174.6H360.125ZM365.616 176.58V176.88C365.616 177.233 365.519 177.517 365.326 177.73C365.132 177.943 364.859 178.05 364.506 178.05C364.152 178.05 363.879 177.943 363.686 177.73C363.492 177.517 363.396 177.233 363.396 176.88V176.58C363.396 176.227 363.491 175.945 363.681 175.735C363.874 175.522 364.149 175.415 364.506 175.415C364.862 175.415 365.136 175.522 365.326 175.735C365.519 175.945 365.616 176.227 365.616 176.58ZM365.026 176.58C365.026 176.377 364.981 176.218 364.891 176.105C364.801 175.988 364.672 175.93 364.506 175.93C364.339 175.93 364.211 175.988 364.121 176.105C364.031 176.218 363.986 176.377 363.986 176.58V176.88C363.986 177.083 364.031 177.243 364.121 177.36C364.211 177.477 364.339 177.535 364.506 177.535C364.672 177.535 364.801 177.477 364.891 177.36C364.981 177.243 365.026 177.083 365.026 176.88V176.58ZM367.745 178V177.655C367.592 177.808 367.459 177.913 367.345 177.97C367.235 178.023 367.12 178.05 367 178.05C366.727 178.05 366.514 177.947 366.36 177.74C366.21 177.533 366.135 177.243 366.135 176.87V176.6C366.135 176.237 366.227 175.948 366.41 175.735C366.594 175.522 366.859 175.415 367.205 175.415C367.292 175.415 367.377 175.423 367.46 175.44C367.547 175.457 367.632 175.48 367.715 175.51V174.3H368.29V178H367.745ZM366.725 176.87C366.725 177.093 366.762 177.257 366.835 177.36C366.912 177.463 367.019 177.515 367.155 177.515C367.232 177.515 367.314 177.493 367.4 177.45C367.487 177.403 367.592 177.317 367.715 177.19V176.03C367.552 175.963 367.402 175.93 367.265 175.93C367.072 175.93 366.934 175.99 366.85 176.11C366.767 176.23 366.725 176.393 366.725 176.6V176.87ZM369.673 174.985H369.068V174.39H369.673V174.985ZM369.658 178H369.083V175.465H369.658V178ZM371.125 175.25V175.465H372.66V178H372.085V175.965H371.125V178H370.55V175.965H370.14V175.465H370.55V175.25C370.55 175.053 370.585 174.88 370.655 174.73C370.725 174.58 370.836 174.463 370.99 174.38C371.146 174.293 371.35 174.25 371.6 174.25C371.736 174.25 371.883 174.267 372.04 174.3C372.196 174.33 372.36 174.387 372.53 174.47L372.32 174.94C372.17 174.883 372.038 174.845 371.925 174.825C371.811 174.802 371.708 174.79 371.615 174.79C371.461 174.79 371.341 174.823 371.255 174.89C371.168 174.953 371.125 175.073 371.125 175.25ZM373.888 176.585V176.88C373.888 177.093 373.926 177.253 374.003 177.36C374.079 177.467 374.203 177.52 374.373 177.52C374.456 177.52 374.549 177.51 374.653 177.49C374.759 177.467 374.874 177.432 374.998 177.385L375.163 177.87C375.013 177.93 374.871 177.975 374.738 178.005C374.604 178.035 374.473 178.05 374.343 178.05C374.009 178.05 373.754 177.943 373.578 177.73C373.401 177.517 373.313 177.233 373.313 176.88V176.585C373.313 176.228 373.401 175.945 373.578 175.735C373.754 175.522 374.009 175.415 374.343 175.415C374.469 175.415 374.598 175.43 374.728 175.46C374.858 175.49 374.994 175.533 375.138 175.59L374.973 176.085C374.733 175.992 374.533 175.945 374.373 175.945C374.203 175.945 374.079 175.998 374.003 176.105C373.926 176.208 373.888 176.368 373.888 176.585ZM377.609 178.025C377.439 178.025 377.302 177.99 377.199 177.92C377.099 177.85 377.026 177.763 376.979 177.66C376.836 177.793 376.697 177.892 376.564 177.955C376.431 178.018 376.287 178.05 376.134 178.05C375.911 178.05 375.746 177.978 375.639 177.835C375.536 177.692 375.484 177.51 375.484 177.29C375.484 177.143 375.511 177.015 375.564 176.905C375.621 176.792 375.712 176.703 375.839 176.64C375.966 176.577 376.139 176.545 376.359 176.545C376.446 176.545 376.536 176.552 376.629 176.565C376.722 176.575 376.816 176.588 376.909 176.605V176.31C376.909 176.17 376.871 176.075 376.794 176.025C376.717 175.972 376.614 175.945 376.484 175.945C376.384 175.945 376.274 175.958 376.154 175.985C376.037 176.012 375.911 176.053 375.774 176.11L375.609 175.62C375.946 175.483 376.251 175.415 376.524 175.415C376.771 175.415 376.961 175.457 377.094 175.54C377.231 175.623 377.326 175.733 377.379 175.87C377.432 176.007 377.459 176.153 377.459 176.31V177.285C377.459 177.335 377.472 177.383 377.499 177.43C377.529 177.473 377.586 177.495 377.669 177.495H377.724V178.025H377.609ZM376.039 177.28C376.039 177.37 376.059 177.442 376.099 177.495C376.139 177.545 376.197 177.57 376.274 177.57C376.351 177.57 376.437 177.55 376.534 177.51C376.631 177.47 376.756 177.377 376.909 177.23V177.015C376.736 176.985 376.566 176.97 376.399 176.97C376.269 176.97 376.176 176.997 376.119 177.05C376.066 177.103 376.039 177.18 376.039 177.28ZM379.653 175.99C379.496 175.99 379.346 176.015 379.203 176.065C379.063 176.112 378.928 176.188 378.798 176.295V178H378.223V175.465H378.768V175.855C378.938 175.695 379.09 175.582 379.223 175.515C379.356 175.448 379.5 175.415 379.653 175.415V175.99Z" fill="white"/>
<path d="M353.7 57.84L355.98 63.42L358.248 57.84H359.82V66H358.44V62.88L358.62 60.024L356.592 65.04H355.308L353.328 60.012L353.508 62.88V66H352.128V57.84H353.7ZM366.877 62.592V63.312C366.877 64.16 366.645 64.84 366.181 65.352C365.717 65.864 365.061 66.12 364.213 66.12C363.365 66.12 362.709 65.864 362.245 65.352C361.781 64.84 361.549 64.16 361.549 63.312V62.592C361.549 61.744 361.777 61.068 362.233 60.564C362.697 60.052 363.357 59.796 364.213 59.796C365.069 59.796 365.725 60.052 366.181 60.564C366.645 61.068 366.877 61.744 366.877 62.592ZM365.461 62.592C365.461 62.104 365.353 61.724 365.137 61.452C364.921 61.172 364.613 61.032 364.213 61.032C363.813 61.032 363.505 61.172 363.289 61.452C363.073 61.724 362.965 62.104 362.965 62.592V63.312C362.965 63.8 363.073 64.184 363.289 64.464C363.505 64.744 363.813 64.884 364.213 64.884C364.613 64.884 364.921 64.744 365.137 64.464C365.353 64.184 365.461 63.8 365.461 63.312V62.592ZM371.989 66V65.172C371.621 65.54 371.301 65.792 371.029 65.928C370.765 66.056 370.489 66.12 370.201 66.12C369.545 66.12 369.033 65.872 368.665 65.376C368.305 64.88 368.125 64.184 368.125 63.288V62.64C368.125 61.768 368.345 61.076 368.785 60.564C369.225 60.052 369.861 59.796 370.693 59.796C370.901 59.796 371.105 59.816 371.305 59.856C371.513 59.896 371.717 59.952 371.917 60.024V57.12H373.297V66H371.989ZM369.541 63.288C369.541 63.824 369.629 64.216 369.805 64.464C369.989 64.712 370.245 64.836 370.573 64.836C370.757 64.836 370.953 64.784 371.161 64.68C371.369 64.568 371.621 64.36 371.917 64.056V61.272C371.525 61.112 371.165 61.032 370.837 61.032C370.373 61.032 370.041 61.176 369.841 61.464C369.641 61.752 369.541 62.144 369.541 62.64V63.288ZM376.614 58.764H375.162V57.336H376.614V58.764ZM376.578 66H375.198V59.916H376.578V66ZM380.099 59.4V59.916H383.783V66H382.403V61.116H380.099V66H378.719V61.116H377.735V59.916H378.719V59.4C378.719 58.928 378.803 58.512 378.971 58.152C379.139 57.792 379.407 57.512 379.775 57.312C380.151 57.104 380.639 57 381.239 57C381.567 57 381.919 57.04 382.295 57.12C382.671 57.192 383.063 57.328 383.471 57.528L382.967 58.656C382.607 58.52 382.291 58.428 382.019 58.38C381.747 58.324 381.499 58.296 381.275 58.296C380.907 58.296 380.619 58.376 380.411 58.536C380.203 58.688 380.099 58.976 380.099 59.4ZM386.731 62.604V63.312C386.731 63.824 386.823 64.208 387.007 64.464C387.191 64.72 387.487 64.848 387.895 64.848C388.095 64.848 388.319 64.824 388.567 64.776C388.823 64.72 389.099 64.636 389.395 64.524L389.791 65.688C389.431 65.832 389.091 65.94 388.771 66.012C388.451 66.084 388.135 66.12 387.823 66.12C387.023 66.12 386.411 65.864 385.987 65.352C385.563 64.84 385.351 64.16 385.351 63.312V62.604C385.351 61.748 385.563 61.068 385.987 60.564C386.411 60.052 387.023 59.796 387.823 59.796C388.127 59.796 388.435 59.832 388.747 59.904C389.059 59.976 389.387 60.08 389.731 60.216L389.335 61.404C388.759 61.18 388.279 61.068 387.895 61.068C387.487 61.068 387.191 61.196 387.007 61.452C386.823 61.7 386.731 62.084 386.731 62.604ZM395.661 66.06C395.253 66.06 394.925 65.976 394.677 65.808C394.437 65.64 394.261 65.432 394.149 65.184C393.805 65.504 393.473 65.74 393.153 65.892C392.833 66.044 392.489 66.12 392.121 66.12C391.585 66.12 391.189 65.948 390.933 65.604C390.685 65.26 390.561 64.824 390.561 64.296C390.561 63.944 390.625 63.636 390.753 63.372C390.889 63.1 391.109 62.888 391.413 62.736C391.717 62.584 392.133 62.508 392.661 62.508C392.869 62.508 393.085 62.524 393.309 62.556C393.533 62.58 393.757 62.612 393.981 62.652V61.944C393.981 61.608 393.889 61.38 393.705 61.26C393.521 61.132 393.273 61.068 392.961 61.068C392.721 61.068 392.457 61.1 392.169 61.164C391.889 61.228 391.585 61.328 391.257 61.464L390.861 60.288C391.669 59.96 392.401 59.796 393.057 59.796C393.649 59.796 394.105 59.896 394.425 60.096C394.753 60.296 394.981 60.56 395.109 60.888C395.237 61.216 395.301 61.568 395.301 61.944V64.284C395.301 64.404 395.333 64.52 395.397 64.632C395.469 64.736 395.605 64.788 395.805 64.788H395.937V66.06H395.661ZM391.893 64.272C391.893 64.488 391.941 64.66 392.037 64.788C392.133 64.908 392.273 64.968 392.457 64.968C392.641 64.968 392.849 64.92 393.081 64.824C393.313 64.728 393.613 64.504 393.981 64.152V63.636C393.565 63.564 393.157 63.528 392.757 63.528C392.445 63.528 392.221 63.592 392.085 63.72C391.957 63.848 391.893 64.032 391.893 64.272ZM400.568 61.176C400.192 61.176 399.832 61.236 399.488 61.356C399.152 61.468 398.828 61.652 398.516 61.908V66H397.136V59.916H398.444V60.852C398.852 60.468 399.216 60.196 399.536 60.036C399.856 59.876 400.2 59.796 400.568 59.796V61.176ZM405.558 61.788V66H404.178V59.916H405.486V60.72C405.862 60.392 406.21 60.156 406.53 60.012C406.85 59.868 407.178 59.796 407.514 59.796C408.258 59.796 408.766 60.124 409.038 60.78C409.438 60.428 409.81 60.176 410.154 60.024C410.498 59.872 410.846 59.796 411.198 59.796C411.758 59.796 412.186 59.984 412.482 60.36C412.778 60.728 412.926 61.248 412.926 61.92V66H411.546V62.088C411.546 61.416 411.29 61.08 410.778 61.08C410.578 61.08 410.358 61.128 410.118 61.224C409.878 61.32 409.586 61.508 409.242 61.788V66H407.862V62.088C407.862 61.416 407.606 61.08 407.094 61.08C406.894 61.08 406.674 61.128 406.434 61.224C406.194 61.32 405.902 61.508 405.558 61.788ZM418.373 66V65.196C418.005 65.516 417.661 65.752 417.341 65.904C417.021 66.048 416.697 66.12 416.369 66.12C415.825 66.12 415.405 65.936 415.109 65.568C414.813 65.192 414.665 64.668 414.665 63.996V59.916H416.045V63.828C416.045 64.5 416.293 64.836 416.789 64.836C416.989 64.836 417.205 64.788 417.437 64.692C417.677 64.596 417.965 64.412 418.301 64.14V59.916H419.681V66H418.373ZM425.505 66V61.116H423.201V66H421.821V61.116H420.837V59.916H421.821V59.316C421.821 58.676 421.981 58.152 422.301 57.744C422.629 57.328 423.169 57.12 423.921 57.12C424.145 57.12 424.357 57.14 424.557 57.18C424.757 57.212 424.945 57.256 425.121 57.312L424.761 58.512C424.489 58.448 424.241 58.416 424.017 58.416C423.761 58.416 423.561 58.48 423.417 58.608C423.273 58.736 423.201 58.972 423.201 59.316V59.916H425.505V59.4C425.505 58.928 425.589 58.512 425.757 58.152C425.925 57.792 426.193 57.512 426.561 57.312C426.937 57.104 427.425 57 428.025 57C428.353 57 428.705 57.04 429.081 57.12C429.457 57.192 429.849 57.328 430.257 57.528L429.753 58.656C429.393 58.52 429.077 58.428 428.805 58.38C428.533 58.324 428.285 58.296 428.061 58.296C427.693 58.296 427.405 58.376 427.197 58.536C426.989 58.688 426.885 58.976 426.885 59.4V59.916H430.569V66H429.189V61.116H426.885V66H425.505ZM435.444 61.08C435.244 61.08 435.016 61.128 434.76 61.224C434.504 61.32 434.2 61.508 433.848 61.788V66H432.468V59.916H433.776V60.732C434.152 60.404 434.508 60.168 434.844 60.024C435.18 59.872 435.52 59.796 435.864 59.796C436.448 59.796 436.892 59.984 437.196 60.36C437.5 60.728 437.652 61.248 437.652 61.92V66H436.272V62.088C436.272 61.416 435.996 61.08 435.444 61.08Z" fill="black"/>
<g style="mix-blend-mode:luminosity">
<path d="M9.00001 215C9.00004 212 10 211 13 211C16 211 107 211 110 211C113 211 114 212 114 215C114 218 114 359 114 362C114 365 113 366 110 366C107 366 16 366 13 366C10.0001 366 9.00003 365 9.00001 362C9 359 8.99999 218 9.00001 215Z" fill="#B6B6B6"/>
<g clip-path="url(#clip0_2_2)">
<path d="M34.4442 257.875L40.37 285.931H84.6299L90.5559 257.875H34.4442Z" fill="#F7CD95"/>
<path d="M89.2045 240.496C84.754 240.496 84.754 244.242 80.302 244.242C75.8515 244.242 75.8515 240.496 71.3995 240.496C66.949 240.496 66.949 244.242 62.4985 244.242C58.0479 244.242 58.0479 240.496 53.5974 240.496C49.1469 240.496 49.1469 244.242 44.6963 244.242C40.2458 244.242 40.2458 240.496 35.7953 240.496C39.4363 229.223 50.0167 221.069 62.5 221.069C74.9834 221.069 85.5637 229.223 89.2045 240.496Z" fill="#8E4238"/>
<path d="M90.5558 249.125C90.5558 246.114 90.0811 243.215 89.2045 240.496C84.7539 240.496 84.7539 244.242 80.302 244.242C75.8514 244.242 75.8514 240.496 71.3995 240.496C66.9489 240.496 66.9489 244.242 62.4984 244.242C58.0479 244.242 58.0479 240.496 53.5974 240.496C49.1468 240.496 49.1468 244.242 44.6963 244.242C40.2458 244.242 40.2458 240.496 35.7953 240.496C34.9185 243.215 34.4439 246.114 34.4439 249.125C32.0276 249.125 30.0688 251.084 30.0688 253.5C30.0688 255.916 32.0276 257.875 34.4439 257.875H90.5556C92.9719 257.875 94.9306 255.916 94.9306 253.5C94.9309 251.084 92.9722 249.125 90.5558 249.125Z" fill="#FC9851"/>
<path d="M83.0369 261.05C82.4533 260.957 81.9061 261.355 81.8137 261.938L78.7151 281.487C78.6227 282.07 79.0203 282.618 79.6036 282.71C79.6601 282.719 79.7166 282.724 79.7723 282.724C80.289 282.724 80.7435 282.348 80.8269 281.822L83.9255 262.273C84.018 261.69 83.6203 261.142 83.0369 261.05Z" fill="#700D00"/>
<path d="M76.1922 261.047C75.6035 260.985 75.0786 261.41 75.0166 261.997L74.208 269.643C74.1458 270.23 74.5715 270.757 75.1587 270.819C75.197 270.823 75.2348 270.825 75.2724 270.825C75.8123 270.825 76.2762 270.417 76.3343 269.868L77.1429 262.222C77.2049 261.635 76.7794 261.109 76.1922 261.047Z" fill="#700D00"/>
<path d="M74.9339 272.945C74.3455 272.884 73.8202 273.309 73.7582 273.896L72.9496 281.542C72.8875 282.129 73.3132 282.655 73.9003 282.717C73.9387 282.722 73.9765 282.724 74.014 282.724C74.554 282.724 75.0179 282.316 75.076 281.767L75.8845 274.121C75.9466 273.534 75.521 273.007 74.9339 272.945Z" fill="#700D00"/>
<path d="M69.3464 261.047C68.76 261.014 68.2535 261.468 68.2222 262.058L67.1868 281.598C67.1554 282.188 67.6082 282.691 68.198 282.722C68.2172 282.723 68.2363 282.724 68.2554 282.724C68.82 282.724 69.292 282.281 69.3221 281.711L70.3574 262.171C70.3888 261.581 69.9361 261.078 69.3464 261.047Z" fill="#700D00"/>
<path d="M62.5002 261.049C61.9096 261.049 61.431 261.528 61.4309 262.118L61.4274 281.654C61.4272 282.245 61.9058 282.723 62.4964 282.723C63.0869 282.723 63.5655 282.245 63.5656 281.654L63.5691 262.119C63.5693 261.528 63.0907 261.049 62.5002 261.049Z" fill="#700D00"/>
<path d="M56.7776 262.067C56.7467 261.477 56.2478 261.019 55.6537 261.055C55.064 261.086 54.6111 261.589 54.6423 262.179L55.6703 281.711C55.7003 282.281 56.1723 282.724 56.7369 282.724C56.7559 282.724 56.775 282.723 56.7941 282.722C57.3838 282.691 57.8367 282.188 57.8055 281.598L56.7776 262.067Z" fill="#700D00"/>
<path d="M49.9836 262.015C49.9216 261.428 49.3966 261.004 48.8081 261.064C48.2209 261.126 47.7951 261.652 47.857 262.239L49.9166 281.767C49.9744 282.316 50.4385 282.724 50.9786 282.724C51.0161 282.724 51.0539 282.722 51.0921 282.718C51.6793 282.656 52.1051 282.13 52.0432 281.542L49.9836 262.015Z" fill="#700D00"/>
<path d="M43.1864 261.964C43.0942 261.381 42.5471 260.983 41.9632 261.076C41.38 261.168 40.982 261.716 41.0744 262.299L44.166 281.822C44.2492 282.348 44.7038 282.724 45.2206 282.724C45.2762 282.724 45.3323 282.719 45.3891 282.711C45.9724 282.618 46.3703 282.071 46.2779 281.487L43.1864 261.964Z" fill="#700D00"/>
<path d="M96 253.5C96 250.858 94.1087 248.65 91.609 248.158C91.5195 245.424 91.05 242.784 90.2537 240.289C90.2372 240.205 90.21 240.124 90.1745 240.048C86.3515 228.42 75.3913 220 62.5 220C49.6087 220 38.6485 228.42 34.8252 240.048C34.7899 240.124 34.7628 240.205 34.7462 240.29C33.9501 242.785 33.4806 245.424 33.3909 248.158C30.8913 248.65 29 250.858 29 253.5C29 256.202 30.9782 258.449 33.562 258.872L39.3244 286.152C39.4287 286.646 39.8651 287 40.3705 287H84.6295C85.1349 287 85.571 286.646 85.6756 286.152L91.4381 258.872C94.0218 258.449 96 256.202 96 253.5ZM62.5 222.138C74.015 222.138 83.8669 229.389 87.7351 239.563C86.0426 239.891 85.003 240.762 84.0651 241.551C82.9884 242.457 82.1379 243.173 80.3024 243.173C78.4667 243.173 77.6162 242.457 76.5395 241.551C75.3564 240.555 74.0155 239.427 71.3997 239.427C68.7843 239.427 67.4436 240.556 66.2605 241.551C65.1839 242.457 64.3336 243.173 62.4984 243.173C60.663 243.173 59.8125 242.457 58.736 241.551C57.5529 240.555 56.2121 239.427 53.5966 239.427C50.9811 239.427 49.6403 240.556 48.4573 241.551C47.3808 242.457 46.5304 243.173 44.6954 243.173C42.8602 243.173 42.0099 242.457 40.9333 241.551C39.9957 240.762 38.9564 239.891 37.2643 239.563C41.133 229.389 50.985 222.138 62.5 222.138ZM83.7626 284.862H41.2373L35.7627 258.944H89.2372L83.7626 284.862ZM90.5559 256.806H34.4441C32.6213 256.806 31.1384 255.323 31.1384 253.5C31.1384 251.677 32.6214 250.194 34.4441 250.194C35.0347 250.194 35.5133 249.716 35.5133 249.125C35.5133 246.52 35.8854 244.001 36.5773 241.616C37.896 241.793 38.6466 242.421 39.5568 243.187C40.7398 244.183 42.0806 245.312 44.6961 245.312C47.3115 245.312 48.6522 244.183 49.835 243.187C50.9116 242.281 51.7619 241.565 53.5971 241.565C55.4323 241.565 56.2829 242.281 57.3593 243.187C58.5424 244.183 59.8832 245.312 62.4988 245.312C65.1143 245.312 66.455 244.183 67.6381 243.187C68.7146 242.281 69.565 241.565 71.4001 241.565C73.2358 241.565 74.0863 242.281 75.163 243.187C76.3461 244.183 77.687 245.312 80.3028 245.312C82.9185 245.312 84.2593 244.183 85.4424 243.187C86.3529 242.421 87.1037 241.793 88.4228 241.616C89.1147 244.001 89.4869 246.52 89.4869 249.125C89.4869 249.716 89.9654 250.194 90.556 250.194C92.3789 250.194 93.8618 251.677 93.8618 253.5C93.8618 255.323 92.3787 256.806 90.5559 256.806Z" fill="#700D00"/>
</g>
<path d="M29.5 296C29.4418 296 29.3835 295.987 29.33 295.961C29.2761 295.935 27.9957 295.31 26.6967 294.262C25.9254 293.639 25.3087 292.996 24.8638 292.35C24.2906 291.517 24 290.675 24 289.847C24 288.277 25.3189 287 26.94 287C28.0365 287 28.9946 287.584 29.5 288.448C30.0054 287.584 30.9636 287 32.06 287C33.6811 287 35 288.277 35 289.847C35 290.675 34.7094 291.517 34.1362 292.35C33.6912 292.996 33.0746 293.639 32.3033 294.262C31.0044 295.31 29.7239 295.935 29.67 295.961C29.6165 295.987 29.5582 296 29.5 296ZM26.94 287.736C25.7381 287.736 24.7602 288.683 24.7602 289.847C24.7602 292.564 28.6337 294.759 29.4999 295.215C30.3658 294.758 34.2399 292.56 34.2399 289.847C34.2399 288.683 33.262 287.736 32.06 287.736C30.858 287.736 29.8801 288.683 29.8801 289.847C29.8801 290.05 29.7099 290.215 29.5 290.215C29.2901 290.215 29.1199 290.05 29.1199 289.847C29.1199 288.683 28.142 287.736 26.94 287.736Z" fill="#FF336F"/>
<path d="M26.94 287.736C25.7381 287.736 24.7602 288.683 24.7602 289.847C24.7602 292.564 28.6337 294.759 29.4999 295.215C30.3658 294.758 34.2399 292.56 34.2399 289.847C34.2399 288.683 33.262 287.736 32.06 287.736C30.858 287.736 29.8801 288.683 29.8801 289.847C29.8801 290.05 29.7099 290.215 29.5 290.215C29.2901 290.215 29.1199 290.05 29.1199 289.847C29.1199 288.683 28.142 287.736 26.94 287.736Z" fill="#FF336F"/>
<path d="M38.05 293.085L38.915 292.6H39.415V296H38.825V293.26L38.315 293.54L38.05 293.085ZM42.1448 296H40.0848V295.525C40.0848 295.285 40.1164 295.085 40.1798 294.925C40.2431 294.762 40.3281 294.628 40.4348 294.525C40.5414 294.418 40.6581 294.333 40.7848 294.27L41.1248 294.1C41.2548 294.033 41.3598 293.963 41.4398 293.89C41.5231 293.813 41.5648 293.715 41.5648 293.595V293.505C41.5648 293.382 41.5214 293.285 41.4348 293.215C41.3514 293.142 41.2164 293.105 41.0298 293.105C40.9164 293.105 40.8014 293.122 40.6848 293.155C40.5714 293.188 40.4331 293.235 40.2698 293.295L40.0848 292.78C40.2714 292.697 40.4414 292.638 40.5948 292.605C40.7514 292.568 40.9031 292.55 41.0498 292.55C41.3198 292.55 41.5348 292.593 41.6948 292.68C41.8581 292.767 41.9748 292.883 42.0448 293.03C42.1181 293.173 42.1548 293.332 42.1548 293.505V293.595C42.1548 293.775 42.1181 293.928 42.0448 294.055C41.9748 294.182 41.8814 294.288 41.7648 294.375C41.6481 294.462 41.5214 294.538 41.3848 294.605L41.0448 294.775C40.9214 294.835 40.8298 294.918 40.7698 295.025C40.7131 295.132 40.6814 295.268 40.6748 295.435H42.1448V296ZM44.6392 295.075C44.6392 295.252 44.6025 295.415 44.5292 295.565C44.4558 295.712 44.3375 295.83 44.1742 295.92C44.0142 296.007 43.7992 296.05 43.5292 296.05C43.3758 296.05 43.2158 296.032 43.0492 295.995C42.8858 295.958 42.7058 295.897 42.5092 295.81L42.6942 295.295C42.8708 295.358 43.0192 295.408 43.1392 295.445C43.2625 295.478 43.3858 295.495 43.5092 295.495C43.6858 295.495 43.8192 295.46 43.9092 295.39C44.0025 295.317 44.0492 295.203 44.0492 295.05V294.98C44.0492 294.853 44.0092 294.752 43.9292 294.675C43.8525 294.595 43.7325 294.555 43.5692 294.555H43.0392V294.015H43.5692C43.7258 294.015 43.8408 293.978 43.9142 293.905C43.9875 293.828 44.0242 293.73 44.0242 293.61V293.54C44.0242 293.387 43.9808 293.277 43.8942 293.21C43.8108 293.14 43.6875 293.105 43.5242 293.105C43.4075 293.105 43.2892 293.122 43.1692 293.155C43.0525 293.185 42.9108 293.232 42.7442 293.295L42.5592 292.78C42.7458 292.693 42.9192 292.633 43.0792 292.6C43.2392 292.567 43.3942 292.55 43.5442 292.55C43.8008 292.55 44.0075 292.593 44.1642 292.68C44.3208 292.767 44.4342 292.883 44.5042 293.03C44.5775 293.177 44.6142 293.338 44.6142 293.515V293.585C44.6142 293.742 44.5742 293.88 44.4942 294C44.4175 294.117 44.3158 294.21 44.1892 294.28C44.3258 294.353 44.4342 294.452 44.5142 294.575C44.5975 294.695 44.6392 294.838 44.6392 295.005V295.075Z" fill="black"/>
<path d="M49 292C49.5 292 93.5 292 94 292C94.5 292 95 292.5 95 293C95 293.5 95 294.5 95 295C95 295.5 94.5 296 94 296C93.5 296 49.5 296 49 296C48.5 296 48 295.5 48 295C48 294.5 48 293.5 48 293C48 292.5 48.5 292 49 292Z" fill="#111111"/>
<path d="M24.7234 309C25.0851 309 56.9149 309 57.2766 309C57.6383 309 58 309.5 58 310C58 310.5 58 311.5 58 312C58 312.5 57.6383 313 57.2766 313C56.9149 313 25.0851 313 24.7234 313C24.3617 313 24 312.5 24 312C24 311.5 24 310.5 24 310C24 309.5 24.3617 309 24.7234 309Z" fill="#111111"/>
<path d="M24.5106 319C24.766 319 47.234 319 47.4894 319C47.7447 319 48 319.5 48 320C48 320.5 48 321.5 48 322C48 322.5 47.7447 323 47.4894 323C47.234 323 24.766 323 24.5106 323C24.2553 323 24 322.5 24 322C24 321.5 24 320.5 24 320C24 319.5 24.2553 319 24.5106 319Z" fill="#111111"/>
<path d="M24.5106 329C24.766 329 47.234 329 47.4894 329C47.7447 329 48 329.5 48 330C48 330.5 48 331.5 48 332C48 332.5 47.7447 333 47.4894 333C47.234 333 24.766 333 24.5106 333C24.2553 333 24 332.5 24 332C24 331.5 24 330.5 24 330C24 329.5 24.2553 329 24.5106 329Z" fill="#111111"/>
</g>
<path d="M107.996 189.663L110.938 195.672C111.344 196.499 112.127 197.073 113.034 197.206L119.614 198.169C121.897 198.503 122.808 201.33 121.157 202.952L116.395 207.629C115.739 208.274 115.44 209.202 115.594 210.111L116.719 216.716C117.109 219.006 114.722 220.753 112.681 219.672L106.795 216.554C105.984 216.124 105.016 216.124 104.205 216.554L98.3192 219.672C96.2776 220.753 93.8915 219.006 94.2814 216.716L95.4055 210.111C95.5603 209.202 95.261 208.274 94.6051 207.629L89.8434 202.952C88.1918 201.33 89.1032 198.503 91.3857 198.169L97.9663 197.206C98.8727 197.073 99.6563 196.499 100.062 195.672L103.004 189.663C104.025 187.579 106.975 187.579 107.996 189.663Z" fill="#FBB03B"/>
<path d="M136.269 221.421L138.944 226.883C139.313 227.636 140.025 228.157 140.849 228.278L146.831 229.154C148.906 229.458 149.735 232.027 148.233 233.502L143.904 237.754C143.308 238.34 143.036 239.183 143.177 240.01L144.199 246.014C144.553 248.097 142.384 249.685 140.528 248.702L135.177 245.867C134.44 245.477 133.56 245.477 132.823 245.867L127.472 248.702C125.616 249.685 123.447 248.097 123.801 246.014L124.823 240.01C124.964 239.183 124.692 238.34 124.096 237.754L119.767 233.502C118.265 232.027 119.094 229.458 121.169 229.154L127.151 228.278C127.975 228.157 128.688 227.636 129.056 226.883L131.731 221.421C132.659 219.526 135.341 219.526 136.269 221.421Z" fill="#29C566"/>
<defs>
<clipPath id="clip0_2_2">
<rect width="67" height="67" fill="white" transform="translate(29 220)"/>
</clipPath>
</defs>
</svg>
