<svg width="617" height="381" viewBox="0 0 617 381" fill="none" xmlns="http://www.w3.org/2000/svg">
<path d="M106 18C101 18 98 22 98 26V338C98 343 102 346 106 346H211V86C211 86 125.5 85 121 85C116.5 85 115.5 83.5 115.5 79.5V49.5C115.5 45.5 117.5 44 121 44C124.5 44 211 45 211 45V18L106 18Z" fill="#111111"/>
<path d="M544 25C544 20 540 17 536 17L535.573 17.0013C534.425 17.0057 531.134 17.0211 526.02 17.0449C484.298 17.2395 321.254 18 211 18V45C211 45 124.5 44 121 44C117.5 44 115.5 45.5 115.5 49.5V79.5C115.5 83.5 116.5 85 121 85C125.5 85 211 86 211 86V346L535.342 345.002L535.638 345.001L535.857 345C535.921 345 535.969 345 536 345C541 345 544 341 544 337V25Z" fill="#22262C"/>
<path d="M132.208 69L131.452 66.606H127.258L126.502 69H124.36L128.446 56.76H130.354L134.458 69H132.208ZM128.428 62.862L127.87 64.626H130.822L130.264 62.862L129.364 59.766L128.428 62.862ZM140.521 61.62C140.221 61.62 139.879 61.692 139.495 61.836C139.111 61.98 138.655 62.262 138.127 62.682V69H136.057V59.874H138.019V61.098C138.583 60.606 139.117 60.252 139.621 60.036C140.125 59.808 140.635 59.694 141.151 59.694C142.027 59.694 142.693 59.976 143.149 60.54C143.605 61.092 143.833 61.872 143.833 62.88V69H141.763V63.132C141.763 62.124 141.349 61.62 140.521 61.62ZM151.914 69V67.758C151.362 68.31 150.882 68.688 150.474 68.892C150.078 69.084 149.664 69.18 149.232 69.18C148.248 69.18 147.48 68.808 146.928 68.064C146.388 67.32 146.118 66.276 146.118 64.932V63.96C146.118 62.652 146.448 61.614 147.108 60.846C147.768 60.078 148.722 59.694 149.97 59.694C150.282 59.694 150.588 59.724 150.888 59.784C151.2 59.844 151.506 59.928 151.806 60.036V55.68H153.876V69H151.914ZM148.242 64.932C148.242 65.736 148.374 66.324 148.638 66.696C148.914 67.068 149.298 67.254 149.79 67.254C150.066 67.254 150.36 67.176 150.672 67.02C150.984 66.852 151.362 66.54 151.806 66.084V61.908C151.218 61.668 150.678 61.548 150.186 61.548C149.49 61.548 148.992 61.764 148.692 62.196C148.392 62.628 148.242 63.216 148.242 63.96V64.932ZM163.659 68.478C163.035 68.73 162.447 68.91 161.895 69.018C161.343 69.126 160.821 69.18 160.329 69.18C158.973 69.18 157.947 68.796 157.251 68.028C156.555 67.26 156.207 66.24 156.207 64.968V63.888C156.207 63.036 156.363 62.298 156.675 61.674C156.987 61.05 157.431 60.564 158.007 60.216C158.583 59.868 159.261 59.694 160.041 59.694C160.677 59.694 161.271 59.826 161.823 60.09C162.387 60.342 162.843 60.744 163.191 61.296C163.551 61.836 163.731 62.532 163.731 63.384C163.731 63.636 163.713 63.906 163.677 64.194C163.641 64.47 163.581 64.764 163.497 65.076H158.205C158.229 65.82 158.415 66.378 158.763 66.75C159.111 67.122 159.669 67.308 160.437 67.308C160.845 67.308 161.265 67.26 161.697 67.164C162.141 67.068 162.597 66.924 163.065 66.732L163.659 68.478ZM160.041 61.44C159.489 61.44 159.057 61.62 158.745 61.98C158.445 62.328 158.271 62.832 158.223 63.492H161.679C161.691 63.432 161.697 63.378 161.697 63.33C161.697 63.27 161.697 63.216 161.697 63.168C161.697 62.592 161.535 62.16 161.211 61.872C160.887 61.584 160.497 61.44 160.041 61.44ZM171.263 61.764C170.699 61.764 170.159 61.854 169.643 62.034C169.139 62.202 168.653 62.478 168.185 62.862V69H166.115V59.874H168.077V61.278C168.689 60.702 169.235 60.294 169.715 60.054C170.195 59.814 170.711 59.694 171.263 59.694V61.764Z" fill="white"/>
<path d="M130.832 103.39V105H125.316V95.48H130.692V97.09H126.996V99.372H130.272V100.982H126.996V103.39H130.832ZM136.084 99.26C135.851 99.26 135.585 99.316 135.286 99.428C134.987 99.54 134.633 99.7593 134.222 100.086V105H132.612V97.902H134.138V98.854C134.577 98.4713 134.992 98.196 135.384 98.028C135.776 97.8507 136.173 97.762 136.574 97.762C137.255 97.762 137.773 97.9813 138.128 98.42C138.483 98.8493 138.66 99.456 138.66 100.24V105H137.05V100.436C137.05 99.652 136.728 99.26 136.084 99.26ZM146.178 104.594C145.692 104.79 145.235 104.93 144.806 105.014C144.376 105.098 143.97 105.14 143.588 105.14C142.533 105.14 141.735 104.841 141.194 104.244C140.652 103.647 140.382 102.853 140.382 101.864V101.024C140.382 100.361 140.503 99.7873 140.746 99.302C140.988 98.8167 141.334 98.4387 141.782 98.168C142.23 97.8973 142.757 97.762 143.364 97.762C143.858 97.762 144.32 97.8647 144.75 98.07C145.188 98.266 145.543 98.5787 145.814 99.008C146.094 99.428 146.234 99.9693 146.234 100.632C146.234 100.828 146.22 101.038 146.192 101.262C146.164 101.477 146.117 101.705 146.052 101.948H141.936C141.954 102.527 142.099 102.961 142.37 103.25C142.64 103.539 143.074 103.684 143.672 103.684C143.989 103.684 144.316 103.647 144.652 103.572C144.997 103.497 145.352 103.385 145.716 103.236L146.178 104.594ZM143.364 99.12C142.934 99.12 142.598 99.26 142.356 99.54C142.122 99.8107 141.987 100.203 141.95 100.716H144.638C144.647 100.669 144.652 100.627 144.652 100.59C144.652 100.543 144.652 100.501 144.652 100.464C144.652 100.016 144.526 99.68 144.274 99.456C144.022 99.232 143.718 99.12 143.364 99.12ZM152.33 105L150.58 102.046C150.3 102.326 150.006 102.606 149.698 102.886V105H148.088V94.64H149.698V101.108C150.23 100.567 150.688 100.049 151.07 99.554C151.462 99.05 151.822 98.4993 152.148 97.902H153.996C153.688 98.462 153.352 98.994 152.988 99.498C152.624 100.002 152.223 100.511 151.784 101.024L154.276 105H152.33ZM161.145 101.024V101.864C161.145 102.853 160.874 103.647 160.333 104.244C159.791 104.841 159.026 105.14 158.037 105.14C157.047 105.14 156.282 104.841 155.741 104.244C155.199 103.647 154.929 102.853 154.929 101.864V101.024C154.929 100.035 155.195 99.246 155.727 98.658C156.268 98.0607 157.038 97.762 158.037 97.762C159.035 97.762 159.801 98.0607 160.333 98.658C160.874 99.246 161.145 100.035 161.145 101.024ZM159.493 101.024C159.493 100.455 159.367 100.011 159.115 99.694C158.863 99.3673 158.503 99.204 158.037 99.204C157.57 99.204 157.211 99.3673 156.959 99.694C156.707 100.011 156.581 100.455 156.581 101.024V101.864C156.581 102.433 156.707 102.881 156.959 103.208C157.211 103.535 157.57 103.698 158.037 103.698C158.503 103.698 158.863 103.535 159.115 103.208C159.367 102.881 159.493 102.433 159.493 101.864V101.024Z" fill="#817E7E"/>
<path d="M130.188 125.346H126.996V129H125.316V119.48H130.608V121.09H126.996V123.736H130.188V125.346ZM135.905 123.372C135.466 123.372 135.046 123.442 134.645 123.582C134.253 123.713 133.875 123.927 133.511 124.226V129H131.901V121.902H133.427V122.994C133.903 122.546 134.328 122.229 134.701 122.042C135.074 121.855 135.476 121.762 135.905 121.762V123.372ZM142.691 129.07C142.215 129.07 141.832 128.972 141.543 128.776C141.263 128.58 141.058 128.337 140.927 128.048C140.526 128.421 140.138 128.697 139.765 128.874C139.392 129.051 138.99 129.14 138.561 129.14C137.936 129.14 137.474 128.939 137.175 128.538C136.886 128.137 136.741 127.628 136.741 127.012C136.741 126.601 136.816 126.242 136.965 125.934C137.124 125.617 137.38 125.369 137.735 125.192C138.09 125.015 138.575 124.926 139.191 124.926C139.434 124.926 139.686 124.945 139.947 124.982C140.208 125.01 140.47 125.047 140.731 125.094V124.268C140.731 123.876 140.624 123.61 140.409 123.47C140.194 123.321 139.905 123.246 139.541 123.246C139.261 123.246 138.953 123.283 138.617 123.358C138.29 123.433 137.936 123.549 137.553 123.708L137.091 122.336C138.034 121.953 138.888 121.762 139.653 121.762C140.344 121.762 140.876 121.879 141.249 122.112C141.632 122.345 141.898 122.653 142.047 123.036C142.196 123.419 142.271 123.829 142.271 124.268V126.998C142.271 127.138 142.308 127.273 142.383 127.404C142.467 127.525 142.626 127.586 142.859 127.586H143.013V129.07H142.691ZM138.295 126.984C138.295 127.236 138.351 127.437 138.463 127.586C138.575 127.726 138.738 127.796 138.953 127.796C139.168 127.796 139.41 127.74 139.681 127.628C139.952 127.516 140.302 127.255 140.731 126.844V126.242C140.246 126.158 139.77 126.116 139.303 126.116C138.939 126.116 138.678 126.191 138.519 126.34C138.37 126.489 138.295 126.704 138.295 126.984ZM147.883 123.26C147.649 123.26 147.383 123.316 147.085 123.428C146.786 123.54 146.431 123.759 146.021 124.086V129H144.411V121.902H145.937V122.854C146.375 122.471 146.791 122.196 147.183 122.028C147.575 121.851 147.971 121.762 148.373 121.762C149.054 121.762 149.572 121.981 149.927 122.42C150.281 122.849 150.459 123.456 150.459 124.24V129H148.849V124.436C148.849 123.652 148.527 123.26 147.883 123.26ZM153.818 125.038V125.864C153.818 126.461 153.926 126.909 154.14 127.208C154.355 127.507 154.7 127.656 155.176 127.656C155.41 127.656 155.671 127.628 155.96 127.572C156.259 127.507 156.581 127.409 156.926 127.278L157.388 128.636C156.968 128.804 156.572 128.93 156.198 129.014C155.825 129.098 155.456 129.14 155.092 129.14C154.159 129.14 153.445 128.841 152.95 128.244C152.456 127.647 152.208 126.853 152.208 125.864V125.038C152.208 124.039 152.456 123.246 152.95 122.658C153.445 122.061 154.159 121.762 155.092 121.762C155.447 121.762 155.806 121.804 156.17 121.888C156.534 121.972 156.917 122.093 157.318 122.252L156.856 123.638C156.184 123.377 155.624 123.246 155.176 123.246C154.7 123.246 154.355 123.395 154.14 123.694C153.926 123.983 153.818 124.431 153.818 125.038ZM160.514 120.558H158.82V118.892H160.514V120.558ZM160.472 129H158.862V121.902H160.472V129ZM164.678 127.74C165.023 127.74 165.308 127.684 165.532 127.572C165.756 127.451 165.868 127.273 165.868 127.04C165.868 126.835 165.793 126.676 165.644 126.564C165.504 126.443 165.247 126.335 164.874 126.242L164.076 126.032C163.46 125.873 163.003 125.607 162.704 125.234C162.415 124.861 162.27 124.417 162.27 123.904C162.27 123.297 162.48 122.789 162.9 122.378C163.32 121.967 163.969 121.762 164.846 121.762C165.201 121.762 165.574 121.804 165.966 121.888C166.358 121.972 166.769 122.107 167.198 122.294L166.736 123.666C166.344 123.479 165.989 123.349 165.672 123.274C165.355 123.199 165.075 123.162 164.832 123.162C164.169 123.162 163.838 123.386 163.838 123.834C163.838 124.011 163.894 124.151 164.006 124.254C164.127 124.357 164.347 124.45 164.664 124.534L165.462 124.744C166.143 124.921 166.638 125.192 166.946 125.556C167.263 125.92 167.422 126.377 167.422 126.928C167.422 127.581 167.198 128.113 166.75 128.524C166.311 128.935 165.616 129.14 164.664 129.14C163.852 129.14 162.998 128.953 162.102 128.58L162.536 127.25C162.975 127.427 163.371 127.553 163.726 127.628C164.081 127.703 164.398 127.74 164.678 127.74Z" fill="#817E7E"/>
<path d="M238 49C238 46 239 45 242 45C245 45 336 45 339 45C342 45 343 46 343 49C343 52 343 193 343 196C343 199 342 200 339 200C336 200 245 200 242 200C239 200 238 199 238 196C238 193 238 52 238 49Z" fill="#B6B6B6"/>
<path d="M260.7 94.2L266.06 118.32H308.94L314.3 94.2L287.5 91.52L260.7 94.2Z" fill="#FF5023"/>
<path d="M287.5 94.2H260.7L266.06 118.32H287.5V94.2Z" fill="#BD3C1A"/>
<path d="M276.78 94.2L279.46 118.32H295.54L298.22 94.2H276.78Z" fill="#FF5023"/>
<path d="M287.5 94.2V118.32H295.54L298.22 94.2H287.5Z" fill="#FF734F"/>
<path d="M313.159 90.764C313.9 88.6001 314.3 86.1763 314.3 83.48C314.3 68.6786 302.301 56.68 287.5 56.68C272.699 56.68 260.7 68.6786 260.7 83.48C260.7 86.1763 261.1 88.6001 261.841 90.764H313.159Z" fill="#BD720D"/>
<path d="M321 87.5C321 91.2003 318 94.2 314.3 94.2H260.7C257 94.2 254 91.2003 254 87.5C254 83.7997 257 80.8 260.7 80.8H314.3C318 80.8 321 83.7997 321 87.5Z" fill="#E2BD25"/>
<path d="M287.5 80.8H260.7C257 80.8 254 83.7997 254 87.5C254 91.2003 257 94.2 260.7 94.2H287.5V80.8Z" fill="#FFDA44"/>
<path d="M287.5 56.68C273.603 56.68 262.178 67.2571 260.833 80.8H263.38C265.6 80.8 267.4 82.5999 267.4 84.82V96.88C267.4 99.1001 269.2 100.9 271.42 100.9C273.64 100.9 275.44 99.1001 275.44 96.88V86.16C275.44 83.9399 277.24 82.14 279.46 82.14C281.68 82.14 283.48 83.9399 283.48 86.16V94.2C283.48 96.4201 285.28 98.22 287.5 98.22C289.72 98.22 291.52 96.4201 291.52 94.2V86.16C291.52 83.9399 293.32 82.14 295.54 82.14C297.76 82.14 299.56 83.9399 299.56 86.16V96.88C299.56 99.1001 301.36 100.9 303.58 100.9C305.8 100.9 307.6 99.1001 307.6 96.88V84.82C307.6 82.5999 309.4 80.8 311.62 80.8H314.167C312.822 67.2571 301.397 56.68 287.5 56.68Z" fill="#804C09"/>
<path d="M287.5 56.68C273.603 56.68 262.178 67.2571 260.833 80.8H263.38C265.6 80.8 267.4 82.5999 267.4 84.82V96.88C267.4 99.1001 269.2 100.9 271.42 100.9C273.64 100.9 275.44 99.1001 275.44 96.88V86.16C275.44 83.9399 277.24 82.14 279.46 82.14C281.68 82.14 283.48 83.9399 283.48 86.16V94.2C283.48 96.4201 285.28 98.22 287.5 98.22C287.5 95.205 287.5 59.1796 287.5 56.68Z" fill="#402604"/>
<path d="M300.9 75.44C302.38 75.44 303.58 74.2401 303.58 72.76C303.58 71.2799 302.38 70.08 300.9 70.08C299.42 70.08 298.22 71.2799 298.22 72.76C298.22 74.2401 299.42 75.44 300.9 75.44Z" fill="#FF5023"/>
<path d="M274.1 75.44C275.58 75.44 276.78 74.2401 276.78 72.76C276.78 71.2799 275.58 70.08 274.1 70.08C272.62 70.08 271.42 71.2799 271.42 72.76C271.42 74.2401 272.62 75.44 274.1 75.44Z" fill="#64C37D"/>
<path d="M287.5 67.4C288.98 67.4 290.18 66.2001 290.18 64.72C290.18 63.2399 288.98 62.04 287.5 62.04C286.02 62.04 284.82 63.2399 284.82 64.72C284.82 66.2001 286.02 67.4 287.5 67.4Z" fill="#FF9811"/>
<path d="M258.5 130C258.442 130 258.384 129.987 258.33 129.961C258.276 129.935 256.996 129.31 255.697 128.262C254.925 127.639 254.309 126.996 253.864 126.35C253.291 125.517 253 124.675 253 123.847C253 122.277 254.319 121 255.94 121C257.036 121 257.995 121.584 258.5 122.448C259.005 121.584 259.964 121 261.06 121C262.681 121 264 122.277 264 123.847C264 124.675 263.709 125.517 263.136 126.35C262.691 126.996 262.075 127.639 261.303 128.262C260.004 129.31 258.724 129.935 258.67 129.961C258.616 129.987 258.558 130 258.5 130ZM255.94 121.736C254.738 121.736 253.76 122.683 253.76 123.847C253.76 126.564 257.634 128.759 258.5 129.215C259.366 128.758 263.24 126.56 263.24 123.847C263.24 122.683 262.262 121.736 261.06 121.736C259.858 121.736 258.88 122.683 258.88 123.847C258.88 124.05 258.71 124.215 258.5 124.215C258.29 124.215 258.12 124.05 258.12 123.847C258.12 122.683 257.142 121.736 255.94 121.736Z" fill="#FF336F"/>
<path d="M255.94 121.736C254.738 121.736 253.76 122.683 253.76 123.847C253.76 126.564 257.634 128.759 258.5 129.215C259.366 128.758 263.24 126.56 263.24 123.847C263.24 122.683 262.262 121.736 261.06 121.736C259.858 121.736 258.88 122.683 258.88 123.847C258.88 124.05 258.71 124.215 258.5 124.215C258.29 124.215 258.12 124.05 258.12 123.847C258.12 122.683 257.142 121.736 255.94 121.736Z" fill="#FF336F"/>
<path d="M267.05 127.085L267.915 126.6H268.415V130H267.825V127.26L267.315 127.54L267.05 127.085ZM271.145 130H269.085V129.525C269.085 129.285 269.116 129.085 269.18 128.925C269.243 128.762 269.328 128.628 269.435 128.525C269.541 128.418 269.658 128.333 269.785 128.27L270.125 128.1C270.255 128.033 270.36 127.963 270.44 127.89C270.523 127.813 270.565 127.715 270.565 127.595V127.505C270.565 127.382 270.521 127.285 270.435 127.215C270.351 127.142 270.216 127.105 270.03 127.105C269.916 127.105 269.801 127.122 269.685 127.155C269.571 127.188 269.433 127.235 269.27 127.295L269.085 126.78C269.271 126.697 269.441 126.638 269.595 126.605C269.751 126.568 269.903 126.55 270.05 126.55C270.32 126.55 270.535 126.593 270.695 126.68C270.858 126.767 270.975 126.883 271.045 127.03C271.118 127.173 271.155 127.332 271.155 127.505V127.595C271.155 127.775 271.118 127.928 271.045 128.055C270.975 128.182 270.881 128.288 270.765 128.375C270.648 128.462 270.521 128.538 270.385 128.605L270.045 128.775C269.921 128.835 269.83 128.918 269.77 129.025C269.713 129.132 269.681 129.268 269.675 129.435H271.145V130ZM273.639 129.075C273.639 129.252 273.603 129.415 273.529 129.565C273.456 129.712 273.338 129.83 273.174 129.92C273.014 130.007 272.799 130.05 272.529 130.05C272.376 130.05 272.216 130.032 272.049 129.995C271.886 129.958 271.706 129.897 271.509 129.81L271.694 129.295C271.871 129.358 272.019 129.408 272.139 129.445C272.263 129.478 272.386 129.495 272.509 129.495C272.686 129.495 272.819 129.46 272.909 129.39C273.003 129.317 273.049 129.203 273.049 129.05V128.98C273.049 128.853 273.009 128.752 272.929 128.675C272.853 128.595 272.733 128.555 272.569 128.555H272.039V128.015H272.569C272.726 128.015 272.841 127.978 272.914 127.905C272.988 127.828 273.024 127.73 273.024 127.61V127.54C273.024 127.387 272.981 127.277 272.894 127.21C272.811 127.14 272.688 127.105 272.524 127.105C272.408 127.105 272.289 127.122 272.169 127.155C272.053 127.185 271.911 127.232 271.744 127.295L271.559 126.78C271.746 126.693 271.919 126.633 272.079 126.6C272.239 126.567 272.394 126.55 272.544 126.55C272.801 126.55 273.008 126.593 273.164 126.68C273.321 126.767 273.434 126.883 273.504 127.03C273.578 127.177 273.614 127.338 273.614 127.515V127.585C273.614 127.742 273.574 127.88 273.494 128C273.418 128.117 273.316 128.21 273.189 128.28C273.326 128.353 273.434 128.452 273.514 128.575C273.598 128.695 273.639 128.838 273.639 129.005V129.075Z" fill="black"/>
<path d="M278 126C278.5 126 322.5 126 323 126C323.5 126 324 126.5 324 127C324 127.5 324 128.5 324 129C324 129.5 323.5 130 323 130C322.5 130 278.5 130 278 130C277.5 130 277 129.5 277 129C277 128.5 277 127.5 277 127C277 126.5 277.5 126 278 126Z" fill="#111111"/>
<path d="M253.723 143C254.085 143 285.915 143 286.277 143C286.638 143 287 143.5 287 144C287 144.5 287 145.5 287 146C287 146.5 286.638 147 286.277 147C285.915 147 254.085 147 253.723 147C253.362 147 253 146.5 253 146C253 145.5 253 144.5 253 144C253 143.5 253.362 143 253.723 143Z" fill="#111111"/>
<path d="M253.511 153C253.766 153 276.234 153 276.489 153C276.745 153 277 153.5 277 154C277 154.5 277 155.5 277 156C277 156.5 276.745 157 276.489 157C276.234 157 253.766 157 253.511 157C253.255 157 253 156.5 253 156C253 155.5 253 154.5 253 154C253 153.5 253.255 153 253.511 153Z" fill="#111111"/>
<path d="M253.511 163C253.766 163 276.234 163 276.489 163C276.745 163 277 163.5 277 164C277 164.5 277 165.5 277 166C277 166.5 276.745 167 276.489 167C276.234 167 253.766 167 253.511 167C253.255 167 253 166.5 253 166C253 165.5 253 164.5 253 164C253 163.5 253.255 163 253.511 163Z" fill="#111111"/>
<path d="M387 49C387 46 388 45 391 45C394 45 485 45 488 45C491 45 492 46 492 49C492 52 492 193 492 196C492 199 491 200 488 200C485 200 394 200 391 200C388 200 387 199 387 196C387 193 387 52 387 49Z" fill="#B6B6B6"/>
<g clip-path="url(#clip0_1_737)">
<path d="M412.444 91.8746L418.37 119.931H462.63L468.556 91.8746H412.444Z" fill="#F7CD95"/>
<path d="M467.204 74.4961C462.754 74.4961 462.754 78.2424 458.302 78.2424C453.851 78.2424 453.851 74.4961 449.399 74.4961C444.949 74.4961 444.949 78.2424 440.498 78.2424C436.048 78.2424 436.048 74.4961 431.597 74.4961C427.147 74.4961 427.147 78.2424 422.696 78.2424C418.246 78.2424 418.246 74.4961 413.795 74.4961C417.436 63.2231 428.017 55.069 440.5 55.069C452.983 55.069 463.564 63.2231 467.204 74.4961Z" fill="#8E4238"/>
<path d="M468.556 83.1249C468.556 80.1142 468.081 77.2146 467.204 74.4961C462.754 74.4961 462.754 78.2424 458.302 78.2424C453.851 78.2424 453.851 74.4961 449.399 74.4961C444.949 74.4961 444.949 78.2424 440.498 78.2424C436.048 78.2424 436.048 74.4961 431.597 74.4961C427.147 74.4961 427.147 78.2424 422.696 78.2424C418.246 78.2424 418.246 74.4961 413.795 74.4961C412.919 77.2146 412.444 80.1142 412.444 83.1249C410.028 83.1249 408.069 85.0836 408.069 87.4999C408.069 89.9162 410.028 91.8748 412.444 91.8748H468.556C470.972 91.8748 472.931 89.9161 472.931 87.4999C472.931 85.0836 470.972 83.1249 468.556 83.1249Z" fill="#FC9851"/>
<path d="M461.037 95.0497C460.453 94.957 459.906 95.3554 459.814 95.9382L456.715 115.487C456.623 116.07 457.02 116.618 457.604 116.71C457.66 116.719 457.717 116.724 457.772 116.724C458.289 116.724 458.744 116.348 458.827 115.822L461.925 96.2729C462.018 95.6897 461.62 95.1419 461.037 95.0497Z" fill="#700D00"/>
<path d="M454.192 95.0467C453.603 94.9854 453.079 95.4103 453.017 95.9974L452.208 103.643C452.146 104.231 452.572 104.757 453.159 104.819C453.197 104.823 453.235 104.825 453.272 104.825C453.812 104.825 454.276 104.417 454.334 103.868L455.143 96.2223C455.205 95.6351 454.779 95.1088 454.192 95.0467Z" fill="#700D00"/>
<path d="M452.934 106.945C452.346 106.884 451.82 107.309 451.758 107.896L450.95 115.542C450.887 116.129 451.313 116.655 451.9 116.717C451.939 116.722 451.976 116.724 452.014 116.724C452.554 116.724 453.018 116.316 453.076 115.767L453.885 108.121C453.947 107.534 453.521 107.007 452.934 106.945Z" fill="#700D00"/>
<path d="M447.346 95.0465C446.76 95.0135 446.253 95.4678 446.222 96.0577L445.187 115.598C445.155 116.188 445.608 116.691 446.198 116.722C446.217 116.723 446.236 116.724 446.255 116.724C446.82 116.724 447.292 116.281 447.322 115.711L448.357 96.1707C448.389 95.5811 447.936 95.0777 447.346 95.0465Z" fill="#700D00"/>
<path d="M440.5 95.0493C439.91 95.0493 439.431 95.5278 439.431 96.1183L439.427 115.654C439.427 116.245 439.906 116.723 440.496 116.723C441.087 116.723 441.565 116.245 441.566 115.654L441.569 96.1185C441.569 95.5282 441.091 95.0494 440.5 95.0493Z" fill="#700D00"/>
<path d="M434.778 96.0666C434.747 95.4769 434.248 95.0187 433.654 95.0552C433.064 95.0862 432.611 95.5893 432.642 96.1791L433.67 115.711C433.7 116.281 434.172 116.724 434.737 116.724C434.756 116.724 434.775 116.723 434.794 116.722C435.384 116.691 435.837 116.188 435.806 115.598L434.778 96.0666Z" fill="#700D00"/>
<path d="M427.984 96.0149C427.922 95.4277 427.397 95.0041 426.808 95.0638C426.221 95.1258 425.795 95.652 425.857 96.2393L427.917 115.767C427.974 116.316 428.438 116.724 428.979 116.724C429.016 116.724 429.054 116.722 429.092 116.718C429.679 116.656 430.105 116.13 430.043 115.542L427.984 96.0149Z" fill="#700D00"/>
<path d="M421.186 95.9644C421.094 95.381 420.547 94.9833 419.963 95.0757C419.38 95.168 418.982 95.7156 419.074 96.2989L422.166 115.822C422.249 116.348 422.704 116.724 423.221 116.724C423.276 116.724 423.332 116.719 423.389 116.711C423.972 116.618 424.37 116.071 424.278 115.487L421.186 95.9644Z" fill="#700D00"/>
<path d="M474 87.5C474 84.8583 472.109 82.6502 469.609 82.1582C469.52 79.424 469.05 76.7844 468.254 74.2895C468.237 74.2048 468.21 74.1239 468.175 74.0477C464.351 62.4196 453.391 54 440.5 54C427.609 54 416.649 62.4196 412.825 74.0479C412.79 74.1242 412.763 74.2048 412.746 74.2897C411.95 76.7847 411.481 79.4243 411.391 82.1585C408.891 82.6502 407 84.8583 407 87.5C407 90.2016 408.978 92.4488 411.562 92.8716L417.324 120.152C417.429 120.646 417.865 121 418.371 121H462.629C463.135 121 463.571 120.646 463.676 120.152L469.438 92.8718C472.022 92.4488 474 90.2016 474 87.5ZM440.5 56.1382C452.015 56.1382 461.867 63.3886 465.735 73.5632C464.043 73.8913 463.003 74.7618 462.065 75.5511C460.988 76.4573 460.138 77.1732 458.302 77.1732C456.467 77.1732 455.616 76.4574 454.54 75.5511C453.356 74.5554 452.015 73.4267 449.4 73.4267C446.784 73.4267 445.444 74.5555 444.261 75.5512C443.184 76.4573 442.334 77.1732 440.498 77.1732C438.663 77.1732 437.813 76.4574 436.736 75.5511C435.553 74.5554 434.212 73.4267 431.597 73.4267C428.981 73.4267 427.64 74.5555 426.457 75.5512C425.381 76.4573 424.53 77.1732 422.695 77.1732C420.86 77.1732 420.01 76.4574 418.933 75.5511C417.996 74.7618 416.956 73.8911 415.264 73.5632C419.133 63.3886 428.985 56.1382 440.5 56.1382ZM461.763 118.862H419.237L413.763 92.9443H467.237L461.763 118.862ZM468.556 90.8059H412.444C410.621 90.8059 409.138 89.3229 409.138 87.5C409.138 85.6771 410.621 84.1944 412.444 84.1944C413.035 84.1944 413.513 83.7158 413.513 83.1252C413.513 80.5205 413.885 78.0012 414.577 75.6164C415.896 75.7929 416.647 76.4211 417.557 77.1872C418.74 78.1829 420.081 79.3117 422.696 79.3117C425.312 79.3117 426.652 78.1832 427.835 77.1874C428.912 76.2812 429.762 75.5652 431.597 75.5652C433.432 75.5652 434.283 76.281 435.359 77.1872C436.542 78.1829 437.883 79.3117 440.499 79.3117C443.114 79.3117 444.455 78.1829 445.638 77.1872C446.715 76.2812 447.565 75.5652 449.4 75.5652C451.236 75.5652 452.086 76.281 453.163 77.1874C454.346 78.1831 455.687 79.3117 458.303 79.3117C460.919 79.3117 462.259 78.1832 463.442 77.1874C464.353 76.4212 465.104 75.7929 466.423 75.6164C467.115 78.0012 467.487 80.5205 467.487 83.1252C467.487 83.7158 467.965 84.1944 468.556 84.1944C470.379 84.1944 471.862 85.6773 471.862 87.5C471.862 89.323 470.379 90.8059 468.556 90.8059Z" fill="#700D00"/>
</g>
<path d="M407.5 130C407.442 130 407.384 129.987 407.33 129.961C407.276 129.935 405.996 129.31 404.697 128.262C403.925 127.639 403.309 126.996 402.864 126.35C402.291 125.517 402 124.675 402 123.847C402 122.277 403.319 121 404.94 121C406.036 121 406.995 121.584 407.5 122.448C408.005 121.584 408.964 121 410.06 121C411.681 121 413 122.277 413 123.847C413 124.675 412.709 125.517 412.136 126.35C411.691 126.996 411.075 127.639 410.303 128.262C409.004 129.31 407.724 129.935 407.67 129.961C407.616 129.987 407.558 130 407.5 130ZM404.94 121.736C403.738 121.736 402.76 122.683 402.76 123.847C402.76 126.564 406.634 128.759 407.5 129.215C408.366 128.758 412.24 126.56 412.24 123.847C412.24 122.683 411.262 121.736 410.06 121.736C408.858 121.736 407.88 122.683 407.88 123.847C407.88 124.05 407.71 124.215 407.5 124.215C407.29 124.215 407.12 124.05 407.12 123.847C407.12 122.683 406.142 121.736 404.94 121.736Z" fill="#FF336F"/>
<path d="M404.94 121.736C403.738 121.736 402.76 122.683 402.76 123.847C402.76 126.564 406.634 128.759 407.5 129.215C408.366 128.758 412.24 126.56 412.24 123.847C412.24 122.683 411.262 121.736 410.06 121.736C408.858 121.736 407.88 122.683 407.88 123.847C407.88 124.05 407.71 124.215 407.5 124.215C407.29 124.215 407.12 124.05 407.12 123.847C407.12 122.683 406.142 121.736 404.94 121.736Z" fill="#FF336F"/>
<path d="M416.05 127.085L416.915 126.6H417.415V130H416.825V127.26L416.315 127.54L416.05 127.085ZM420.145 130H418.085V129.525C418.085 129.285 418.116 129.085 418.18 128.925C418.243 128.762 418.328 128.628 418.435 128.525C418.541 128.418 418.658 128.333 418.785 128.27L419.125 128.1C419.255 128.033 419.36 127.963 419.44 127.89C419.523 127.813 419.565 127.715 419.565 127.595V127.505C419.565 127.382 419.521 127.285 419.435 127.215C419.351 127.142 419.216 127.105 419.03 127.105C418.916 127.105 418.801 127.122 418.685 127.155C418.571 127.188 418.433 127.235 418.27 127.295L418.085 126.78C418.271 126.697 418.441 126.638 418.595 126.605C418.751 126.568 418.903 126.55 419.05 126.55C419.32 126.55 419.535 126.593 419.695 126.68C419.858 126.767 419.975 126.883 420.045 127.03C420.118 127.173 420.155 127.332 420.155 127.505V127.595C420.155 127.775 420.118 127.928 420.045 128.055C419.975 128.182 419.881 128.288 419.765 128.375C419.648 128.462 419.521 128.538 419.385 128.605L419.045 128.775C418.921 128.835 418.83 128.918 418.77 129.025C418.713 129.132 418.681 129.268 418.675 129.435H420.145V130ZM422.639 129.075C422.639 129.252 422.603 129.415 422.529 129.565C422.456 129.712 422.338 129.83 422.174 129.92C422.014 130.007 421.799 130.05 421.529 130.05C421.376 130.05 421.216 130.032 421.049 129.995C420.886 129.958 420.706 129.897 420.509 129.81L420.694 129.295C420.871 129.358 421.019 129.408 421.139 129.445C421.263 129.478 421.386 129.495 421.509 129.495C421.686 129.495 421.819 129.46 421.909 129.39C422.003 129.317 422.049 129.203 422.049 129.05V128.98C422.049 128.853 422.009 128.752 421.929 128.675C421.853 128.595 421.733 128.555 421.569 128.555H421.039V128.015H421.569C421.726 128.015 421.841 127.978 421.914 127.905C421.988 127.828 422.024 127.73 422.024 127.61V127.54C422.024 127.387 421.981 127.277 421.894 127.21C421.811 127.14 421.688 127.105 421.524 127.105C421.408 127.105 421.289 127.122 421.169 127.155C421.053 127.185 420.911 127.232 420.744 127.295L420.559 126.78C420.746 126.693 420.919 126.633 421.079 126.6C421.239 126.567 421.394 126.55 421.544 126.55C421.801 126.55 422.008 126.593 422.164 126.68C422.321 126.767 422.434 126.883 422.504 127.03C422.578 127.177 422.614 127.338 422.614 127.515V127.585C422.614 127.742 422.574 127.88 422.494 128C422.418 128.117 422.316 128.21 422.189 128.28C422.326 128.353 422.434 128.452 422.514 128.575C422.598 128.695 422.639 128.838 422.639 129.005V129.075Z" fill="black"/>
<path d="M427 126C427.5 126 471.5 126 472 126C472.5 126 473 126.5 473 127C473 127.5 473 128.5 473 129C473 129.5 472.5 130 472 130C471.5 130 427.5 130 427 130C426.5 130 426 129.5 426 129C426 128.5 426 127.5 426 127C426 126.5 426.5 126 427 126Z" fill="#111111"/>
<path d="M402.723 143C403.085 143 434.915 143 435.277 143C435.638 143 436 143.5 436 144C436 144.5 436 145.5 436 146C436 146.5 435.638 147 435.277 147C434.915 147 403.085 147 402.723 147C402.362 147 402 146.5 402 146C402 145.5 402 144.5 402 144C402 143.5 402.362 143 402.723 143Z" fill="#111111"/>
<path d="M402.511 153C402.766 153 425.234 153 425.489 153C425.745 153 426 153.5 426 154C426 154.5 426 155.5 426 156C426 156.5 425.745 157 425.489 157C425.234 157 402.766 157 402.511 157C402.255 157 402 156.5 402 156C402 155.5 402 154.5 402 154C402 153.5 402.255 153 402.511 153Z" fill="#111111"/>
<path d="M402.511 163C402.766 163 425.234 163 425.489 163C425.745 163 426 163.5 426 164C426 164.5 426 165.5 426 166C426 166.5 425.745 167 425.489 167C425.234 167 402.766 167 402.511 167C402.255 167 402 166.5 402 166C402 165.5 402 164.5 402 164C402 163.5 402.255 163 402.511 163Z" fill="#111111"/>
<path d="M238 230C238 227 239 226 242 226C245 226 336 226 339 226C342 226 343 227 343 230C343 233 343 374 343 377C343 380 342 381 339 381C336 381 245 381 242 381C239 381 238 380 238 377C238 374 238 233 238 230Z" fill="#B6B6B6"/>
<path d="M263.274 270.166H312.919L306.714 299.125H269.48L263.274 270.166Z" fill="#D07C40"/>
<path d="M286.999 299.125H289.131L290.165 272.234H286.028L286.999 299.125ZM279.823 299.125H281.891V272.234H277.754L279.823 299.125ZM269.48 272.234L273.617 299.125H275.685L273.617 272.234H269.48V272.234ZM294.303 299.125H296.371L298.44 272.234H294.303V299.125H294.303ZM302.577 272.234L300.508 299.125H302.577L306.714 272.234H302.577V272.234Z" fill="#CD9770"/>
<path d="M261.206 270.166L267.413 299.125H283.954L312.92 270.166H261.206V270.166Z" fill="#C1733B"/>
<path d="M290.165 272.234H286.028L286.891 296.188L289.338 293.741L290.165 272.234Z" fill="#BF8C68"/>
<path d="M277.754 272.234L279.823 299.125H281.891V272.234H277.754Z" fill="#BF8C68"/>
<path d="M298.44 272.234H294.303V288.778L297.405 285.675L298.44 272.234Z" fill="#BF8C68"/>
<path d="M269.48 272.234L273.617 299.125H275.685L273.617 272.234H269.48Z" fill="#BF8C68"/>
<path d="M306.714 272.234H302.577L301.888 281.195L305.963 277.122L306.714 272.234Z" fill="#BF8C68"/>
<path d="M321.194 265.056C321.194 258.337 314.514 258.12 314.514 258.12L314.568 256.96C314.568 247.384 307.485 239.104 298.342 239.104C296.741 239.104 294.865 239.874 293.394 240.321C291.696 237.16 288.498 235 284.785 235C280.458 235 277.007 237.919 275.648 241.965L274.858 241.938C267.548 241.938 261.168 247.566 261.168 254.587C261.168 255.791 261.808 257.016 262.132 258.122H261.619C257.962 258.122 255 261.227 255 265.058V267.369C255 271.202 257.964 274.238 261.619 274.238C263.572 274.238 265.308 273.593 266.52 272.186H269.956C271.168 273.595 272.905 274.238 274.856 274.238C276.809 274.238 278.545 273.593 279.757 272.186H283.195C284.407 273.595 286.142 274.238 288.095 274.238C290.048 274.238 291.783 273.593 292.996 272.186H296.432C297.646 273.595 299.379 274.238 301.332 274.238C303.283 274.238 305.02 273.593 306.233 272.186H309.667C310.879 273.595 312.616 274.238 314.567 274.238C318.224 274.238 321.189 271.2 321.189 267.369C321.187 267.369 321.194 265.056 321.194 265.056Z" fill="#F4B459"/>
<path d="M272.583 259.823C270.87 259.823 269.48 261.211 269.48 262.926C269.48 264.64 270.87 266.028 272.583 266.028C274.295 266.028 275.685 264.638 275.685 262.926C275.685 261.213 274.295 259.823 272.583 259.823ZM278.788 249.48C277.076 249.48 275.685 250.868 275.685 252.583C275.685 254.298 277.076 255.686 278.788 255.686C280.501 255.686 281.891 254.298 281.891 252.583C281.891 250.868 280.501 249.48 278.788 249.48ZM296.371 247.411C294.087 247.411 292.234 249.265 292.234 251.548C292.234 253.834 294.087 255.686 296.371 255.686C298.655 255.686 300.508 253.834 300.508 251.548C300.508 249.265 298.655 247.411 296.371 247.411ZM305.68 259.823C303.967 259.823 302.577 261.213 302.577 262.926C302.577 264.638 303.967 266.028 305.68 266.028C307.392 266.028 308.782 264.638 308.782 262.926C308.782 261.213 307.392 259.823 305.68 259.823ZM288.097 259.823C286.953 259.823 286.028 260.749 286.028 261.891C286.028 263.035 286.953 263.96 288.097 263.96C289.241 263.96 290.166 263.035 290.166 261.891C290.165 260.747 289.241 259.823 288.097 259.823Z" fill="#C39047"/>
<path d="M258.5 311C258.442 311 258.384 310.987 258.33 310.961C258.276 310.935 256.996 310.31 255.697 309.262C254.925 308.639 254.309 307.996 253.864 307.35C253.291 306.517 253 305.675 253 304.847C253 303.277 254.319 302 255.94 302C257.036 302 257.995 302.584 258.5 303.448C259.005 302.584 259.964 302 261.06 302C262.681 302 264 303.277 264 304.847C264 305.675 263.709 306.517 263.136 307.35C262.691 307.996 262.075 308.639 261.303 309.262C260.004 310.31 258.724 310.935 258.67 310.961C258.616 310.987 258.558 311 258.5 311ZM255.94 302.736C254.738 302.736 253.76 303.683 253.76 304.847C253.76 307.564 257.634 309.759 258.5 310.215C259.366 309.758 263.24 307.56 263.24 304.847C263.24 303.683 262.262 302.736 261.06 302.736C259.858 302.736 258.88 303.683 258.88 304.847C258.88 305.05 258.71 305.215 258.5 305.215C258.29 305.215 258.12 305.05 258.12 304.847C258.12 303.683 257.142 302.736 255.94 302.736Z" fill="#FF336F"/>
<path d="M255.94 302.736C254.738 302.736 253.76 303.683 253.76 304.847C253.76 307.564 257.634 309.759 258.5 310.215C259.366 309.758 263.24 307.56 263.24 304.847C263.24 303.683 262.262 302.736 261.06 302.736C259.858 302.736 258.88 303.683 258.88 304.847C258.88 305.05 258.71 305.215 258.5 305.215C258.29 305.215 258.12 305.05 258.12 304.847C258.12 303.683 257.142 302.736 255.94 302.736Z" fill="#FF336F"/>
<path d="M267.05 308.085L267.915 307.6H268.415V311H267.825V308.26L267.315 308.54L267.05 308.085ZM271.145 311H269.085V310.525C269.085 310.285 269.116 310.085 269.18 309.925C269.243 309.762 269.328 309.628 269.435 309.525C269.541 309.418 269.658 309.333 269.785 309.27L270.125 309.1C270.255 309.033 270.36 308.963 270.44 308.89C270.523 308.813 270.565 308.715 270.565 308.595V308.505C270.565 308.382 270.521 308.285 270.435 308.215C270.351 308.142 270.216 308.105 270.03 308.105C269.916 308.105 269.801 308.122 269.685 308.155C269.571 308.188 269.433 308.235 269.27 308.295L269.085 307.78C269.271 307.697 269.441 307.638 269.595 307.605C269.751 307.568 269.903 307.55 270.05 307.55C270.32 307.55 270.535 307.593 270.695 307.68C270.858 307.767 270.975 307.883 271.045 308.03C271.118 308.173 271.155 308.332 271.155 308.505V308.595C271.155 308.775 271.118 308.928 271.045 309.055C270.975 309.182 270.881 309.288 270.765 309.375C270.648 309.462 270.521 309.538 270.385 309.605L270.045 309.775C269.921 309.835 269.83 309.918 269.77 310.025C269.713 310.132 269.681 310.268 269.675 310.435H271.145V311ZM273.639 310.075C273.639 310.252 273.603 310.415 273.529 310.565C273.456 310.712 273.338 310.83 273.174 310.92C273.014 311.007 272.799 311.05 272.529 311.05C272.376 311.05 272.216 311.032 272.049 310.995C271.886 310.958 271.706 310.897 271.509 310.81L271.694 310.295C271.871 310.358 272.019 310.408 272.139 310.445C272.263 310.478 272.386 310.495 272.509 310.495C272.686 310.495 272.819 310.46 272.909 310.39C273.003 310.317 273.049 310.203 273.049 310.05V309.98C273.049 309.853 273.009 309.752 272.929 309.675C272.853 309.595 272.733 309.555 272.569 309.555H272.039V309.015H272.569C272.726 309.015 272.841 308.978 272.914 308.905C272.988 308.828 273.024 308.73 273.024 308.61V308.54C273.024 308.387 272.981 308.277 272.894 308.21C272.811 308.14 272.688 308.105 272.524 308.105C272.408 308.105 272.289 308.122 272.169 308.155C272.053 308.185 271.911 308.232 271.744 308.295L271.559 307.78C271.746 307.693 271.919 307.633 272.079 307.6C272.239 307.567 272.394 307.55 272.544 307.55C272.801 307.55 273.008 307.593 273.164 307.68C273.321 307.767 273.434 307.883 273.504 308.03C273.578 308.177 273.614 308.338 273.614 308.515V308.585C273.614 308.742 273.574 308.88 273.494 309C273.418 309.117 273.316 309.21 273.189 309.28C273.326 309.353 273.434 309.452 273.514 309.575C273.598 309.695 273.639 309.838 273.639 310.005V310.075Z" fill="black"/>
<path d="M278 307C278.5 307 322.5 307 323 307C323.5 307 324 307.5 324 308C324 308.5 324 309.5 324 310C324 310.5 323.5 311 323 311C322.5 311 278.5 311 278 311C277.5 311 277 310.5 277 310C277 309.5 277 308.5 277 308C277 307.5 277.5 307 278 307Z" fill="#111111"/>
<path d="M253.723 324C254.085 324 285.915 324 286.277 324C286.638 324 287 324.5 287 325C287 325.5 287 326.5 287 327C287 327.5 286.638 328 286.277 328C285.915 328 254.085 328 253.723 328C253.362 328 253 327.5 253 327C253 326.5 253 325.5 253 325C253 324.5 253.362 324 253.723 324Z" fill="#111111"/>
<path d="M253.511 334C253.766 334 276.234 334 276.489 334C276.745 334 277 334.5 277 335C277 335.5 277 336.5 277 337C277 337.5 276.745 338 276.489 338C276.234 338 253.766 338 253.511 338C253.255 338 253 337.5 253 337C253 336.5 253 335.5 253 335C253 334.5 253.255 334 253.511 334Z" fill="#111111"/>
<path d="M253.511 344C253.766 344 276.234 344 276.489 344C276.745 344 277 344.5 277 345C277 345.5 277 346.5 277 347C277 347.5 276.745 348 276.489 348C276.234 348 253.766 348 253.511 348C253.255 348 253 347.5 253 347C253 346.5 253 345.5 253 345C253 344.5 253.255 344 253.511 344Z" fill="#111111"/>
<path d="M115.884 229.385V239.077L75.5 252L69.0386 222.923L115.884 229.385Z" fill="#825645"/>
<path d="M75.5 222.923V252L35.1155 239.077V229.385L75.5 222.923Z" fill="#C16C49"/>
<path d="M115.884 189V229.385H75.5L65.8077 209.192L75.5 189H115.884Z" fill="#683520"/>
<path d="M75.5 189H35.1155V229.385H75.5V189Z" fill="#B54E25"/>
<path d="M119.115 315.394V336L108.208 325.086L97.3045 336L86.4007 325.086L75.4968 336L64.593 325.086L53.6923 336L42.7885 325.086L31.8846 336V315.394L75.4968 302.471L119.115 315.394Z" fill="#C41216"/>
<path d="M115.885 239.077H35.1155V258.462H115.885V239.077Z" fill="#E2D8BD"/>
<path d="M119.115 248.769H31.8846V315.394H119.115V248.769Z" fill="#F92629"/>
<path d="M65.8078 198.692H44.8077V219.692H65.8078V198.692Z" fill="#C16C49"/>
<path d="M106.192 198.692H85.1923V219.692H106.192V198.692Z" fill="#825645"/>
<defs>
<clipPath id="clip0_1_737">
<rect width="67" height="67" fill="white" transform="translate(407 54)"/>
</clipPath>
</defs>
</svg>
